<?xml version="1.0" encoding="UTF-8"?>
<svg id="Camada_2" data-name="Camada 2" xmlns="http://www.w3.org/2000/svg" viewBox="0 0 749.28 505.59">
  <defs>
    <style>
      .cls-1 {
        fill: #ebebeb;
      }
    </style>
  </defs>
  <g id="Camada_19" data-name="Camada 19">
    <path class="cls-1" d="m360.91,130.03s32.51,14.07,42.1-17.55c0,0,66.94,26.68,87.17-6.26,0,0-6.2,30.72,7.27,37.87,0,0-30.77,69.49-136.54-14.07Z"/>
    <path class="cls-1" d="m411.04,232.73s61.23-.79,65.89-55.32c0,0,22.84-13.96,27.67-28.96-.38,1.17,7.37,3.49,8.08,3.57,4.67.55,9.41-2.52,14.1-3.33,3.54-.62,7.34-.79,10.58.79,4.69,2.28,7.08,7.81,7.13,13.02.08,7.56-3.6,14.66-5.97,21.7-2.1,6.22-3.91,12.56-5.18,19-1.96,9.89-4.76,27.42,6.38,33.22,0,0,34.02,8.16,39.2,26.66,0,0,5.74,12.02,11.41,9.89,0,0-11.94,47.09-79.13,40.52,0,0-74.51-7.28-106.61-59.01,0,0,5.3-11.58,6.79-21.94"/>
    <path class="cls-1" d="m574.95,307.34s8.19-3.4,15.87-21.38c0,0,20.04,5.44,27.66-9.88,0,0,2.34-23.48,23.72-18.44,0,0,13.37,4.06,16.07,3.38,0,0,48.09-35.26,50.87-2.54,0,0,41.06-6.17,40.03,6.94,0,0,4.23,30.79-39.26,23.57,0,0-23.76,2.3-18.66,25.65,0,0,5.03,24.12-36.47,35.19,0,0,11.74,28.06,3.1,27.11,0,0-5.71,9.02-40.46-16.54,0,0-30.82-23.14-42.46-53.07Z"/>
    <path class="cls-1" d="m620.38,371.33s-15.8-8.03-18.11-15.21c0,0-81.63,8.16-94.74,70.44,0,0,76.09-56.32,112.85-55.23Z"/>
    <path class="cls-1" d="m497.53,429.56s2.19-19.77,7.72-26.19c1.15-1.34.76-3.4-.73-4.35-6.2-3.94-17.12-11.88-13.52-17.09,0,0-86.86-7.43-113.78,72.01,0,0,6.91,12.54-1.5,28.46,0,0,35.59,40.3,42.36,14.66,0,0,17.32-43.66,79.45-67.5Z"/>
    <path class="cls-1" d="m358.28,448s20.83-60.81,58.91-60.64c0,0-32.23-.85-44.9-63.83,0,0-40.33-22.32-74.19-16.36,0,0-19.74,10.78-35.57,10.78,0,0-16.9,72.31,38.22,98.18,0,0-16.07,16.85-6.69,26.13,0,0,5.01,11.76,64.22,5.75Z"/>
    <path class="cls-1" d="m.54,248.93s-4.78-6.32,14.1-14.95c8.31-3.8,16.01-8.85,22.48-15.3,3.37-3.37,6.61-7.27,8.98-11.53,1.79-3.23,2.92-6.78,3.53-10.42,2.22-13.24,13.71-73.08,40.77-80.5,0,0,66.45,67.5,80.62,54.47,0,0,19.79,77-7.4,102.07,0,0-28.32-46.33-98.24-11.27,0,0-6.76,3.3-28.88-6.35,0,0-35.49.26-35.95-6.23Z"/>
    <path class="cls-1" d="m96.4,108.23s69.19,66.97,79.69,54.97c0,0,46.52,34.25,71.79,4.74,0,0,27.3-33.27-24.66-66.62,0,0,13.15-41.21-53.1-13.79,0,0-22.43-19.65-24.16-34.29-.14-1.2-1.51-1.77-2.46-1.02-1.78,1.41-4.67,2.88-9.17,3.33-8.97.9-17.44,4.71-23.78,11.13-8.17,8.26-15.99,21.57-14.15,41.55Z"/>
    <path class="cls-1" d="m154.23,34.41c3.15-8.83,13.3-29.65,38.85-28.98,1.3.03,2.6-.1,3.86-.38,14.39-3.11,99.88-19.48,99.74,30.33,0,.71.03,1.43.11,2.14.28,2.29,1.11,6.99,3.41,8.71s4.04,3.64,5.14,6.13c6.85,15.62,26.72,59.3,38.72,69.26,5.03,4.18,7.66,10.7,6.17,17.07-2.23,9.54-4.48,26.03-30.12,29.86-1.72.26-6.45.3-8.17,0-5.9-1.02-11.34-11.59-33.04-29.21-2.36-1.92-12.84-4.03-13.93-6.87-3.65-9.53-15.85-32.18-26.48-39.82-4.02-2.89-6.55-7.4-7.02-12.33-.87-9.21-8.73-19.66-45.58-7.02-6.13,2.1-12.93.59-17.57-3.94-6.01-5.87-13.18-15.13-14.91-26.99-.39-2.67-.09-5.41.82-7.95Z"/>
    <path class="cls-1" d="m309.93,40.78s34.28-30.55,85.02-9.8c0,0,25.6,51.99-12.64,91.4,0,0-16.77,3.05-32.51-9.69-15.15-12.27-29.07-39.7-39.88-71.9Z"/>
    <path class="cls-1" d="m404.4,33.22s22.17,8.26,25.77-1.96c0,0,12.33-31.92,43.71-9.2,0,0,8.39,7.69,7.63,11.46,0,0-8.34,22.14-2.67,24.15,0,0,20.14,4.1,12.55,17.05,0,0-5.55,13.58-3.63,20.8,0,0-11.28,34.04-81.53,6.59,0,0,17.84-48.1-1.82-67.65"/>
    <path class="cls-1" d="m170.61,279.77s59.24,52.31,118.66,21.84c0,0,5.57-3.51,4.83-17.2-1.65-30.51-14.16-84.49-44.47-70.98,0,0-21.96-9.82-23.15-25.81,0,0-21.36,8.64-48.47-9.93,0,0,20.14,75.64-7.4,102.07Z"/>
    <path class="cls-1" d="m501.39,322.12s-16.04,47.45,7.89,67.43c0,0,24.47-38.17,83.78-42.29,0,0-25.59-27.96-25.02-37.32,0,0-26.18,24.41-65.19,12.17"/>
    <path class="cls-1" d="m489.1,370.74s-5.59-27.75,3.08-48.6c0,0-74.75-16.21-101.29-67.72,0,0-26.56,40.02-89.08,19.79,0,0,7.21,11.96,2.77,25.89,0,0,33.37-7.32,78.23,17.53,0,0,10.47,57.87,42.47,63.83,0,0,45.37-21.45,63.83-10.72Z"/>
    <path class="cls-1" d="m329.34,177.18s24.75,48.44,70.29,47c0,0,64.51,3.78,70.29-49.61,0,0-42.57,23.98-110.6-35.75,0,0,9.43,35.37-29.98,38.37Z"/>
    <path class="cls-1" d="m233.81,185.62s28.83-1.32,28.41-32.33c0-.45-.02-.9-.04-1.36-1.3-32.34,38.71,35.19,57.51,26.96,0,0,24.56,55.34,68.86,51.39.47-.04.95-.09,1.43-.15,0,0-10.88,60.64-89.73,38.02,0,0-7.03-83.55-44.47-63.63,0,0-19.06-1.21-21.96-18.9Z"/>
  </g>
</svg>