<svg width="1360" height="590" viewBox="0 0 1360 590" fill="none" xmlns="http://www.w3.org/2000/svg">
<g clip-path="url(#clip0_138_7)">
<path d="M-1 -1419C39 -1389 156.6 -1333.8 307 -1353C457.4 -1372.2 628.333 -1333 695 -1311M889 -985C925.667 -953 1023 -898.6 1119 -937C1215 -975.4 1283 -928.333 1311 -901C1332.33 -851.667 1333 -761 1267 -711M1361 -3.5C1346 126.5 1265.09 159.06 1237.59 243.06C1211.16 323.78 1301.92 418.394 1326.59 445.06C1370.59 481.06 1502 650.5 1391 650.5C1275.74 650.5 1065 725 1041 761M325 1141C278.333 1174.33 165 1231 85 1191C-15 1141 93 1033 139 1087C175.8 1130.2 154.333 1210.33 139 1245C116.333 1282.33 73 1366.17 73 1403C73 1457 73 1469 115 1503C139 1522.43 486.333 1601 471 1631" stroke="#AE24FF"/>
</g>
<defs>
<clipPath id="clip0_138_7">
<rect width="1367" height="590" fill="white"/>
</clipPath>
</defs>
</svg>
