<svg width="144" height="590" viewBox="0 0 144 590" fill="none" xmlns="http://www.w3.org/2000/svg">
<g clip-path="url(#clip0_138_7)">
<path d="M-1 -1419C39 -1389 156.6 -1333.8 307 -1353C457.4 -1372.2 628.333 -1333 695 -1311M889 -985C925.667 -953 1023 -898.6 1119 -937C1215 -975.4 1283 -928.333 1311 -901C1332.33 -851.667 1333 -761 1267 -711M1361 -3.5C1346 126.5 1265.09 159.06 1237.59 243.06C1211.16 323.78 1301.92 418.394 1326.59 445.06C1370.59 481.06 1502 650.5 1391 650.5C1275.74 650.5 1065 725 1041 761M325 1141C278.333 1174.33 165 1231 85 1191C-15 1141 93 1033 139 1087C175.8 1130.2 154.333 1210.33 139 1245C116.333 1282.33 73 1366.17 73 1403C73 1457 73 1469 115 1503C139 1522.43 486.333 1601 471 1631" stroke="#AE24FF"/>
<path d="M-1221 -1419C-1181.28 -1389 -1064.5 -1333.8 -915.146 -1353C-765.793 -1372.2 -596.051 -1333 -529.849 -1311M-337.2 -985C-300.789 -953 -204.134 -898.6 -108.802 -937C-13.4711 -975.4 54.0552 -928.333 81.8601 -901C103.045 -851.667 103.707 -761 38.1667 -711M131.512 -3.5C116.616 126.5 36.268 159.06 8.95957 243.06C-17.2826 323.78 72.8447 418.394 97.3396 445.06C141.033 481.06 271.53 650.5 161.303 650.5C46.8502 650.5 -162.426 725 -186.259 761M-897.271 1141C-943.613 1174.33 -1056.16 1231 -1135.6 1191C-1234.9 1141 -1127.65 1033 -1081.98 1087C-1045.43 1130.2 -1066.75 1210.33 -1081.98 1245C-1104.48 1282.33 -1147.52 1366.17 -1147.52 1403C-1147.52 1457 -1147.52 1469 -1105.81 1503C-1081.98 1522.43 -737.062 1601 -752.288 1631" stroke="#AE24FF"/>
</g>
<defs>
<clipPath id="clip0_138_7">
<rect width="151" height="590" fill="white"/>
</clipPath>
</defs>
</svg>
