<svg width="1355" height="746" viewBox="0 0 1355 746" fill="none" xmlns="http://www.w3.org/2000/svg">
<g clip-path="url(#clip0_138_10)">
<path d="M-1 1C39 31 156.6 86.2 307 67C457.4 47.8 628.333 87 695 109M889 435C925.667 467 1023 521.4 1119 483C1215 444.6 1283 491.667 1311 519C1332.33 568.333 1333 659 1267 709M1355 1443C1315 1470.33 1233.8 1546.2 1229 1631C1224.2 1715.8 1248.33 1798.33 1273 1825C1317 1861 1365 2011.8 1253 2039C1141 2066.2 1065 2145 1041 2181M325 2561C278.333 2594.33 165 2651 85 2611C-15 2561 93 2453 139 2507C175.8 2550.2 154.333 2630.33 139 2665C116.333 2702.33 73 2786.17 73 2823C73 2877 73 2889 115 2923C139 2942.43 486.333 3021 471 3051" stroke="#AE24FF"/>
</g>
<defs>
<clipPath id="clip0_138_10">
<rect width="1355" height="746" fill="white"/>
</clipPath>
</defs>
</svg>
