<svg width="1360" height="1037" viewBox="0 0 1360 1037" fill="none" xmlns="http://www.w3.org/2000/svg">
<g clip-path="url(#clip0_138_5)">
<path d="M-7 -1998C33 -1968 150.6 -1912.8 301 -1932C451.4 -1951.2 622.333 -1912 689 -1890M883 -1564C919.667 -1532 1017 -1477.6 1113 -1516C1209 -1554.4 1277 -1507.33 1305 -1480C1326.33 -1430.67 1327 -1340 1261 -1290M1349 -556C1309 -528.667 1227.8 -452.8 1223 -368C1218.2 -283.2 1387.33 -178.167 1412 -151.5C1456 -115.5 1388 65.5 1277 65.5C1161.74 65.5 1059 146 1035 182M396 508C349.333 541.333 159 652 79 612C-21 562 87 454 133 508C169.8 551.2 148.333 631.333 133 666C110.333 703.333 67 787.165 67 824C67 878 67 890 109 924C133 943.429 544 1025.5 531 1083" stroke="#AE24FF"/>
</g>
<defs>
<clipPath id="clip0_138_5">
<rect width="1368" height="1037" fill="white"/>
</clipPath>
</defs>
</svg>
