<svg width="853" height="32" viewBox="0 0 853 32" fill="none" xmlns="http://www.w3.org/2000/svg">
<path d="M16 32C24.8366 32 32 24.8366 32 16C32 7.16344 24.8366 0 16 0C7.16344 0 0 7.16344 0 16C0 24.8366 7.16344 32 16 32Z" fill="white"/>
<path d="M83 32C91.8366 32 99 24.8366 99 16C99 7.16344 91.8366 0 83 0C74.1634 0 67 7.16344 67 16C67 24.8366 74.1634 32 83 32Z" fill="white"/>
<path d="M159 32C167.837 32 175 24.8366 175 16C175 7.16344 167.837 0 159 0C150.163 0 143 7.16344 143 16C143 24.8366 150.163 32 159 32Z" fill="white"/>
<path d="M238 32C246.837 32 254 24.8366 254 16C254 7.16344 246.837 0 238 0C229.163 0 222 7.16344 222 16C222 24.8366 229.163 32 238 32Z" fill="white"/>
<path d="M309 32C317.837 32 325 24.8366 325 16C325 7.16344 317.837 0 309 0C300.163 0 293 7.16344 293 16C293 24.8366 300.163 32 309 32Z" fill="white"/>
<path d="M388 32C396.837 32 404 24.8366 404 16C404 7.16344 396.837 0 388 0C379.163 0 372 7.16344 372 16C372 24.8366 379.163 32 388 32Z" fill="white"/>
<path d="M469 32C477.837 32 485 24.8366 485 16C485 7.16344 477.837 0 469 0C460.163 0 453 7.16344 453 16C453 24.8366 460.163 32 469 32Z" fill="white"/>
<path d="M548 32C556.837 32 564 24.8366 564 16C564 7.16344 556.837 0 548 0C539.163 0 532 7.16344 532 16C532 24.8366 539.163 32 548 32Z" fill="white"/>
<path d="M624 32C632.837 32 640 24.8366 640 16C640 7.16344 632.837 0 624 0C615.163 0 608 7.16344 608 16C608 24.8366 615.163 32 624 32Z" fill="white"/>
<path d="M703 32C711.837 32 719 24.8366 719 16C719 7.16344 711.837 0 703 0C694.163 0 687 7.16344 687 16C687 24.8366 694.163 32 703 32Z" fill="white"/>
<path d="M768 32C776.837 32 784 24.8366 784 16C784 7.16344 776.837 0 768 0C759.163 0 752 7.16344 752 16C752 24.8366 759.163 32 768 32Z" fill="white"/>
<path d="M837 32C845.837 32 853 24.8366 853 16C853 7.16344 845.837 0 837 0C828.163 0 821 7.16344 821 16C821 24.8366 828.163 32 837 32Z" fill="white"/>
</svg>
