<svg width="1155" height="33" viewBox="0 0 1155 33" fill="none" xmlns="http://www.w3.org/2000/svg">
<path d="M309 33C317.837 33 325 25.8366 325 17C325 8.16344 317.837 1 309 1C300.163 1 293 8.16344 293 17C293 25.8366 300.163 33 309 33Z" fill="white"/>
<path d="M383 33C391.837 33 399 25.8366 399 17C399 8.16344 391.837 1 383 1C374.163 1 367 8.16344 367 17C367 25.8366 374.163 33 383 33Z" fill="white"/>
<path d="M459 33C467.837 33 475 25.8366 475 17C475 8.16344 467.837 1 459 1C450.163 1 443 8.16344 443 17C443 25.8366 450.163 33 459 33Z" fill="white"/>
<path d="M536 33C544.837 33 552 25.8366 552 17C552 8.16344 544.837 1 536 1C527.163 1 520 8.16344 520 17C520 25.8366 527.163 33 536 33Z" fill="white"/>
<path d="M609 33C617.837 33 625 25.8366 625 17C625 8.16344 617.837 1 609 1C600.163 1 593 8.16344 593 17C593 25.8366 600.163 33 609 33Z" fill="white"/>
<path d="M685 33C693.837 33 701 25.8366 701 17C701 8.16344 693.837 1 685 1C676.163 1 669 8.16344 669 17C669 25.8366 676.163 33 685 33Z" fill="white"/>
<path d="M762 33C770.837 33 778 25.8366 778 17C778 8.16344 770.837 1 762 1C753.163 1 746 8.16344 746 17C746 25.8366 753.163 33 762 33Z" fill="white"/>
<path d="M841 33C849.837 33 857 25.8366 857 17C857 8.16344 849.837 1 841 1C832.163 1 825 8.16344 825 17C825 25.8366 832.163 33 841 33Z" fill="white"/>
<path d="M917 33C925.837 33 933 25.8366 933 17C933 8.16344 925.837 1 917 1C908.163 1 901 8.16344 901 17C901 25.8366 908.163 33 917 33Z" fill="white"/>
<path d="M994 33C1002.84 33 1010 25.8366 1010 17C1010 8.16344 1002.84 1 994 1C985.163 1 978 8.16344 978 17C978 25.8366 985.163 33 994 33Z" fill="white"/>
<path d="M1065 33C1073.84 33 1081 25.8366 1081 17C1081 8.16344 1073.84 1 1065 1C1056.16 1 1049 8.16344 1049 17C1049 25.8366 1056.16 33 1065 33Z" fill="white"/>
<path d="M1139 33C1147.84 33 1155 25.8366 1155 17C1155 8.16344 1147.84 1 1139 1C1130.16 1 1123 8.16344 1123 17C1123 25.8366 1130.16 33 1139 33Z" fill="white"/>
<path d="M87 32C95.8366 32 103 24.8366 103 16C103 7.16344 95.8366 0 87 0C78.1634 0 71 7.16344 71 16C71 24.8366 78.1634 32 87 32Z" fill="white"/>
<path d="M163 32C171.837 32 179 24.8366 179 16C179 7.16344 171.837 0 163 0C154.163 0 147 7.16344 147 16C147 24.8366 154.163 32 163 32Z" fill="white"/>
<path d="M16 32C24.8366 32 32 24.8366 32 16C32 7.16344 24.8366 0 16 0C7.16344 0 0 7.16344 0 16C0 24.8366 7.16344 32 16 32Z" fill="white"/>
<path d="M235 32C243.837 32 251 24.8366 251 16C251 7.16344 243.837 0 235 0C226.163 0 219 7.16344 219 16C219 24.8366 226.163 32 235 32Z" fill="white"/>
</svg>
