<svg width="271" height="35" viewBox="0 0 271 35" fill="none" xmlns="http://www.w3.org/2000/svg">
<path d="M0.229975 13.0332C9.90998 18.4332 20.27 23.2533 31.32 24.8933C36.46 25.6533 41.72 25.6832 46.83 24.6732C52.32 23.5832 57.31 21.0632 62.54 19.1532C67.61 17.3032 72.75 16.4432 78.08 17.6132C83.02 18.6932 87.58 21.0132 92.08 23.2432C96.4 25.3832 100.76 27.5632 105.46 28.7533C110.69 30.0732 116.14 29.9432 121.42 28.9632C141.11 25.3032 164.33 7.96323 183.41 22.7332C185.38 24.2632 187.31 25.9032 189.62 26.9232C191.68 27.8432 193.94 28.2432 196.19 28.2032C201.05 28.1032 205.78 26.1032 209.73 23.3632C214.12 20.3132 217.78 16.3632 221.65 12.7132C225.52 9.06321 229.79 5.74316 234.81 3.66316C243.6 0.0231624 254.98 -0.32675 262.54 6.25325C268.56 11.4932 271.66 20.7732 268.79 28.4232C268.07 30.3332 266.98 32.0532 265.57 33.5332C265.24 33.8832 265.77 34.4132 266.1 34.0632C271.51 28.3832 271.64 19.8032 268.46 12.9632C264.73 4.95321 256.8 0.553197 248.11 0.323197C237.92 0.0531966 228.9 4.92319 221.63 11.6932C213.99 18.8132 205.47 28.8432 193.79 27.3132C188.13 26.5732 184.65 22.0632 179.88 19.4632C175.69 17.1732 170.91 16.2432 166.16 16.2232C155.18 16.1832 145.05 20.5933 134.92 24.2633C129.28 26.3033 123.48 28.1632 117.49 28.7832C111.87 29.3632 106.39 28.6032 101.12 26.5832C91.98 23.0732 83.5 16.5532 73.38 16.2932C67.99 16.1532 62.93 18.1333 58.03 20.1433C52.65 22.3433 47.34 24.2533 41.49 24.6333C29.87 25.3933 18.45 21.4132 8.15002 16.3732C5.60002 15.1232 3.07997 13.7832 0.59997 12.4032C0.17997 12.1632 -0.200035 12.8132 0.219965 13.0532L0.229975 13.0332Z" fill="black"/>
</svg>
