<svg width="300" height="164" viewBox="0 0 300 164" fill="none" xmlns="http://www.w3.org/2000/svg">
<path d="M0.93999 1.04994C-0.95001 17.8399 5.14001 34.78 15.84 47.65C26.54 60.52 42.22 69.39 58.47 73.9C75.46 78.62 93.58 78.97 110.81 75.36C119.41 73.56 127.79 70.7599 135.74 67.0299C144.14 63.0799 151.74 57.9204 159.23 52.4904C166.9 46.9404 174.6 41.3802 183.33 37.6002C192.06 33.8202 202.13 31.44 211.78 29.36C227.36 26.01 244.3 22.7803 260.02 27.1203C267.93 29.3103 274.95 33.68 280.1 40.11C285.78 47.19 289.6 55.9104 293.09 64.2204C296.53 72.3904 299.53 81.4501 298.42 90.4401C297.31 99.3901 291.57 106.21 283.84 110.45C276.08 114.71 267.34 116.29 258.83 118.32C250.87 120.22 241.31 122.56 235.73 129.04C233.52 131.61 232.19 134.87 232.87 138.28C233.47 141.29 235.56 143.64 238 145.37C243.9 149.56 251.48 150.15 257.31 154.45C260.3 156.65 262.57 159.72 262.22 163.59C262.18 164.07 262.93 164.07 262.97 163.59C263.6 156.61 256.56 152.42 250.95 150.23C244.86 147.85 235.48 145.91 233.68 138.44C232.62 134.06 235.26 130.08 238.51 127.4C242.04 124.48 246.47 122.71 250.78 121.31C259.38 118.52 268.45 117.42 276.97 114.34C284.05 111.77 291.03 107.82 295.25 101.38C299.89 94.32 300.1 85.6803 298.33 77.6603C296.44 69.0403 292.62 60.8899 288.76 53.0099C285.04 45.4099 280.59 38.03 273.7 32.88C261.06 23.44 244.15 23.4303 229.19 25.4303C220.86 26.5503 212.61 28.3204 204.43 30.2404C195.13 32.4104 185.87 35.12 177.4 39.63C169.06 44.06 161.63 49.9403 153.94 55.3703C146.34 60.7303 138.35 65.3702 129.71 68.8502C112.96 75.6002 94.61 78.2799 76.63 76.5299C58.99 74.8099 41.38 68.7599 27.35 57.7599C13.61 46.9799 3.66998 31.13 1.67998 13.61C1.19998 9.44 1.20998 5.23996 1.67998 1.06996C1.72998 0.589961 0.97998 0.589961 0.92998 1.06996L0.93999 1.04994Z" fill="black"/>
</svg>
