<svg width="275" height="127" viewBox="0 0 275 127" fill="none" xmlns="http://www.w3.org/2000/svg">
<path d="M69.8255 0.871502C70.6951 16.8868 67.5964 33.515 60.3194 47.3624C53.0423 61.2098 41.357 71.8451 27.1927 72.9915C20.0856 73.5704 12.4387 71.6976 6.94095 66.3175C1.78304 61.2666 -0.286142 53.9002 1.3332 46.3863C2.72264 39.9279 6.87098 33.5377 13.0285 32.607C21.2352 31.3698 27.8325 39.3945 31.3511 46.863C35.4194 55.5006 37.4686 65.3073 43.2663 72.8212C48.3342 79.3931 55.3414 83.7857 62.6884 86.1692C71.5048 89.0295 80.8511 88.9046 89.8774 87.5198C99.2436 86.0783 108.51 83.5132 117.546 80.4259C135.099 74.4443 151.902 65.8975 167.586 55.1601C182.32 45.0696 197.554 32.9588 215.527 33.4355C231.61 33.8555 246.864 43.5713 257.08 57.396C268.255 72.5147 273.373 92.4572 274.153 111.912C274.343 116.622 274.273 121.344 273.993 126.054C273.963 126.599 274.713 126.599 274.743 126.054C275.912 106.293 273.193 85.7605 264.577 68.3264C256.61 52.1862 243.275 39.4058 227.412 34.5705C219.555 32.1756 211.338 31.96 203.411 34.0712C194.675 36.398 186.638 41.1652 178.961 46.3182C170.895 51.7323 163.038 57.4982 154.721 62.4016C146.035 67.5206 137.038 71.9699 127.822 75.7041C118.796 79.3589 109.559 82.3328 100.193 84.5915C89.9474 87.0545 79.3117 88.689 68.8759 86.8502C60.5393 85.386 52.3026 81.5383 46.0851 74.9437C39.1779 67.6114 36.7889 57.4529 32.7305 48.1229C29.4818 40.643 23.9741 32.8453 16.1872 31.7671C10.1896 30.9385 5.0317 35.0699 2.32279 40.9381C-0.376115 46.7721 -0.895889 54.184 1.68307 60.1883C4.70185 67.2028 11.2292 71.5159 17.7466 73.1163C31.6709 76.5328 45.7253 69.0301 54.8816 57.2712C64.3077 45.1604 69.2857 28.9976 70.4552 13.039C70.7451 8.98695 70.7851 4.92357 70.5652 0.871502C70.5352 0.326687 69.7855 0.326687 69.8155 0.871502H69.8255Z" fill="black"/>
</svg>
