<svg width="338" height="226" viewBox="0 0 338 226" fill="none" xmlns="http://www.w3.org/2000/svg">
<path d="M336.76 1.11004C323.66 30.65 288.02 39.8998 258.98 44.3798C238.61 47.5198 217.96 48.84 197.36 48.33C186.93 48.07 176.52 47.3498 166.16 46.1498C156.03 44.9798 145.98 43.1898 135.83 42.1498C126.3 41.1698 116.77 41.06 107.26 42.34C98.03 43.59 88.97 45.97 80.27 49.28C63.15 55.79 47.36 65.78 33.82 78.09C21.1 89.66 9.25999 103.68 3.77999 120.23C-0.960009 134.54 0.0499983 150.78 8.96 163.31C13.1 169.13 18.77 173.61 25.53 175.98C34.25 179.04 43.66 178.86 52.54 181.23C60.28 183.29 66.79 187.72 71.24 194.43C75.2 200.41 77.32 207.63 77.02 214.81C76.87 218.32 76.11 221.76 74.77 225.01C74.59 225.46 75.31 225.65 75.49 225.21C80.7 212.54 76.66 197.12 66.69 187.92C60.82 182.51 53.39 180.29 45.65 179.06C36.88 177.67 27.64 177.18 19.83 172.51C6.60999 164.61 0.489989 147.97 1.80999 133.11C3.40999 115.17 14.1 99.4098 26.15 86.6598C51.88 59.4398 88.7 40.5499 126.76 42.2099C137.13 42.6599 147.39 44.39 157.66 45.81C167.59 47.19 177.58 48.1699 187.59 48.6999C208.2 49.7899 228.91 49.0499 249.39 46.4699C265.82 44.3999 282.38 41.5199 297.85 35.4199C311.05 30.2099 323.75 22.4799 332.13 10.7599C334.2 7.85994 335.96 4.74992 337.4 1.48992C337.59 1.04992 336.95 0.670041 336.75 1.11004H336.76Z" fill="black"/>
</svg>
