<svg width="888" height="222" viewBox="0 0 888 222" fill="none" xmlns="http://www.w3.org/2000/svg">
<path d="M1.04 85.8334C4.16 76.4334 13.96 70.9734 23.6 71.3234C36.39 71.7834 41.31 82.2734 46.07 92.5134C53.48 108.453 67.65 118.053 84.99 120.453C102.5 122.873 120.15 117.963 134.08 107.173C142.07 100.983 148.82 93.1834 153.78 84.3734C159.75 73.7634 161.86 61.6334 167.33 50.8234C187.1 11.7134 238.4 3.94338 277.54 1.49338C329.85 -1.77662 382.78 5.20338 432.44 21.9834C455.82 29.8834 479.24 39.6534 498.7 55.1434C517.38 70.0134 529.11 91.5734 547.9 106.263C565.47 120.003 586.97 127.623 608.39 132.953C628.87 138.043 650.78 141.183 671.71 136.943C690.96 133.043 709.78 121.593 717.51 102.813C724.07 86.8934 719.6 65.9934 703.25 57.8334C689.31 50.8734 669.53 58.6534 667.07 74.8534C665.44 85.6134 671.15 96.1134 676.58 104.963C682.06 113.903 688.41 122.333 695.55 130.023C709.1 144.603 725.98 157.023 745.39 162.353C754.66 164.903 764.38 165.693 773.93 164.463C785.55 162.963 796.54 158.663 807.66 155.203C819.2 151.613 831.9 148.433 843.93 151.573C852.03 153.683 859.59 158.503 866.19 163.493C879.11 173.273 896.82 192.753 879.27 207.503C872.83 212.913 864.49 215.523 857.81 220.663C857.43 220.953 857.81 221.603 858.19 221.313C869.39 212.683 888.54 208.583 887.42 190.753C887.03 184.553 883.01 178.913 879.09 174.373C873.66 168.093 867.05 162.753 860.04 158.333C853.81 154.403 847.07 151.003 839.7 150.023C828.75 148.563 817.85 151.253 807.46 154.493C795.96 158.073 784.56 162.583 772.5 163.903C762.18 165.033 751.73 163.753 741.88 160.533C721.5 153.873 704.21 139.613 690.65 123.333C678.22 108.413 653.77 75.9434 677.43 60.3634C686.05 54.6834 697.44 54.5234 706.01 60.3434C715.04 66.4734 720.09 77.6734 719.88 88.4534C719.41 112.683 697.11 129.863 675.44 135.353C654.03 140.773 631.18 137.753 610.03 132.613C587.29 127.093 564.41 119.013 546.15 103.923C528.13 89.0434 516.54 68.0834 497.99 53.6634C479.96 39.6534 458.71 30.4234 437.3 22.9034C389.85 6.22338 339.27 -1.47662 289.01 0.233382C251.3 1.51338 204.92 5.90339 177.45 35.2034C171.17 41.9034 166.55 49.6934 163.33 58.2734C159.07 69.6134 155.89 80.9834 148.73 90.9634C136.51 107.993 117.62 119.443 96.5 120.293C77.59 121.053 57.84 113.373 48.61 96.0134C44.36 88.0234 41.83 77.9134 33.37 73.2034C27.37 69.8734 19.88 69.8834 13.56 72.3034C7.36001 74.6734 2.44001 79.3134 0.330005 85.6634C0.180005 86.1234 0.900003 86.3234 1.05 85.8634L1.04 85.8334Z" fill="black"/>
</svg>
