<svg width="513" height="160" viewBox="0 0 513 160" fill="none" xmlns="http://www.w3.org/2000/svg">
<path d="M41.6849 0.0370462C23.0609 10.2934 3.64267 23.9639 0.398228 41.6304C-2.11016 55.2798 7.31324 71.8526 26.3537 76.5917C32.184 78.0428 38.3533 78.0008 44.416 77.468C51.7766 76.823 59.1371 75.9186 66.4395 74.9722C80.9668 73.0794 94.8549 70.184 108.152 65.501C121.953 60.6357 135.202 55.2166 149.817 51.6553C163.908 48.2201 178.61 46.096 193.447 45.3809C205.95 44.778 219.267 45.2267 230.734 49.2507C242.83 53.4921 250.394 61.7014 252.418 71.2287C254.539 81.2117 250.462 91.1525 243.625 99.7754C240.022 104.311 235.673 108.468 231.054 112.485C227.354 115.71 223.47 119.075 221.785 123.162C218.308 131.617 226.695 139.195 235.538 143.935C246.249 149.676 259.159 153.343 271.982 155.747C285.56 158.292 299.719 159.582 313.724 159.94C328.929 160.325 343.689 158.874 358.1 155.313C371.775 151.927 384.995 147.405 398.021 142.89C410.592 138.536 422.601 133.524 432.78 126.563C452.673 112.941 466.968 93.7395 493.746 86.3294C499.799 84.6538 506.172 83.8125 512.651 83.9738C513.116 83.9878 513.116 83.462 512.651 83.448C486.124 82.7609 466.551 98.0719 450.775 111.49C441.768 119.145 432.722 126.871 421.313 132.725C409.643 138.712 396.452 142.904 383.494 147.173C370.138 151.569 356.541 155.852 342.091 157.956C326.934 160.164 311.273 159.708 296 158.397C282.17 157.212 268.369 155.102 255.469 151.246C243.644 147.713 229.988 142.504 223.993 133.86C220.739 129.17 221.165 124.151 224.71 119.608C227.964 115.444 232.758 111.995 236.729 108.202C244.622 100.652 251.14 91.9867 253.116 82.5155C254.782 74.5235 253.048 65.9216 247.053 59.0093C240.951 51.9707 230.802 47.7996 219.809 45.9909C207.558 43.9719 194.687 44.4767 182.319 45.6614C168.441 46.9934 154.785 49.5311 141.74 53.2256C128.239 57.0463 115.852 62.4936 102.661 66.791C88.9665 71.2567 74.3811 73.5492 59.6213 75.2878C46.5564 76.8231 32.4359 79.3188 20.3975 73.9908C11.2259 69.9317 5.17288 62.8231 2.43206 55.42C-4.12461 37.7465 10.0928 21.2719 27.2351 9.51526C31.9225 6.30445 36.9006 3.33193 42.0336 0.506695C42.4016 0.30339 42.0336 -0.152224 41.6655 0.0510809L41.6849 0.0370462Z" fill="black"/>
</svg>
