<svg width="213" height="192" viewBox="0 0 213 192" fill="none" xmlns="http://www.w3.org/2000/svg">
<path d="M167.61 0.26997C156.9 12.33 142.01 19.1899 126.72 23.4599C111.43 27.7299 95.06 29.55 79.21 32.56C63.65 35.51 47.81 39.6701 34.39 48.3901C27.73 52.7101 21.89 58.15 17.21 64.56C11.95 71.77 8.12999 79.9202 4.90999 88.2202C1.77999 96.2702 -0.970022 104.58 0.869978 113.28C2.42998 120.63 6.64998 127.26 12.12 132.34C24.91 144.22 43.42 146.11 60.02 143.89C69.4 142.64 78.64 140.21 87.45 136.77C96.02 133.43 104.06 128.27 113.13 126.33C127.3 123.3 142.11 128.7 152.71 138.16C158.07 142.95 162.48 148.83 165.39 155.41C166.87 158.77 167.89 162.28 168.55 165.88C169.27 169.8 169.71 173.79 170.83 177.62C171.82 180.99 173.41 184.36 176.08 186.73C178.2 188.61 180.92 189.67 183.66 190.27C190.2 191.69 197.18 190.91 203.67 189.63C206.68 189.04 209.67 188.29 212.59 187.37C213.05 187.23 212.85 186.5 212.39 186.65C206.06 188.64 199.41 189.98 192.76 190.21C186.54 190.42 179.21 189.75 175.03 184.55C170.03 178.33 170.39 169.59 168.51 162.2C166.83 155.64 163.64 149.52 159.44 144.22C151.01 133.6 138.27 126.03 124.65 124.89C117.2 124.27 110.15 125.9 103.33 128.84C98.86 130.77 94.54 133.04 90.04 134.92C85.54 136.8 81.21 138.32 76.67 139.62C59.44 144.56 39.38 146.76 22.72 138.7C15.68 135.3 9.57999 129.86 5.56999 123.12C1.31999 115.97 -0.0300162 107.85 1.85998 99.7402C2.92998 95.1702 4.65999 90.7499 6.40999 86.3999C8.09999 82.1999 9.95998 78.0698 12.11 74.0898C16.18 66.5598 21.33 59.6798 27.88 54.1298C40.06 43.7998 55.58 38.51 70.94 35.04C86.45 31.53 102.31 29.9399 117.83 26.4599C133.35 22.9799 147.74 18.11 159.89 8.56001C162.86 6.23001 165.61 3.63001 168.12 0.810009C168.44 0.450009 167.91 -0.0802644 167.59 0.279736L167.61 0.26997Z" fill="black"/>
</svg>
