<svg width="333" height="262" viewBox="0 0 333 262" fill="none" xmlns="http://www.w3.org/2000/svg">
<path d="M332.187 0.743676C325.391 23.0011 310.292 44.9785 285.073 50.9678C278.914 52.4276 272.532 52.7176 266.278 51.7177C259.589 50.6578 253.196 48.4282 246.719 46.5784C234.794 43.1788 221.978 41.589 209.714 44.3387C199.063 46.7284 189.496 52.6576 183.73 61.5266C181.044 65.6561 179.281 70.3356 178.899 75.175C178.474 80.5944 180.014 85.8338 182.084 90.8332C184.155 95.8327 186.937 101.102 188.424 106.551C189.878 111.871 189.793 117.32 187.68 122.469C185.62 127.499 181.904 131.948 177.115 134.918C171.891 138.148 165.583 139.308 159.393 138.908C145.801 138.018 134.45 130.319 124.246 122.479C114.508 115 104.856 107.361 93.4414 102.192C83.4282 97.6624 72.3532 95.2127 61.2781 96.9225C51.7109 98.4023 42.3666 102.902 36.76 110.531C29.7943 120.02 30.1872 132.208 30.5907 143.227C30.7925 148.796 31.2172 154.636 34.5408 159.445C37.1423 163.215 41.1455 165.864 45.4991 167.604C55.9052 171.764 67.2351 170.734 78.2146 171.764C84.5538 172.354 90.9886 173.734 96.2553 177.273C101.087 180.523 104.601 185.412 106.205 190.782C109.433 201.59 103.805 213.529 93.2927 218.758C81.6761 224.528 67.8191 221.478 55.6185 219.388C43.5771 217.328 30.3996 215.779 19.1122 221.388C14.5356 223.668 10.4688 227.017 7.92032 231.287C5.29756 235.666 4.84094 240.646 4.50114 245.565C4.1295 250.865 3.81098 256.514 0.0945208 260.803C-0.224033 261.173 0.338712 261.713 0.657266 261.333C7.87782 252.974 3.17385 240.986 8.4937 231.857C14.8117 220.998 28.7538 217.728 40.9756 218.298C53.8027 218.898 66.2263 223.168 79.1384 222.758C90.3409 222.398 100.694 217.398 105.504 207.53C109.964 198.381 108.021 187.572 100.864 180.133C92.5813 171.524 79.8923 170.874 68.3819 170.464C57.8271 170.084 45.4354 169.384 37.5777 161.775C32.9268 157.275 31.8118 151.186 31.5039 145.127C31.2066 139.258 30.9943 133.298 31.6314 127.439C32.2685 121.58 33.9568 115.63 37.6201 110.721C40.6889 106.611 44.9575 103.412 49.7146 101.172C59.7703 96.4325 71.4612 96.0726 82.1752 98.8922C94.6201 102.172 105.568 109.141 115.538 116.67C125.318 124.059 134.769 132.438 146.619 136.818C157.248 140.747 169.99 141.227 179.387 134.308C187.723 128.169 191.737 118.05 189.708 108.291C187.415 97.2625 179.186 87.6536 179.674 76.0649C180.131 65.2962 187.574 55.5473 197.088 49.9779C208.248 43.4387 222.19 42.6288 234.869 44.6386C247.579 46.6583 259.472 52.6777 272.479 53.0376C284.266 53.3576 295.851 49.1981 305.195 42.5789C314.72 35.8297 321.855 26.5007 326.888 16.4019C329.373 11.4125 331.369 6.21309 332.983 0.923709C333.121 0.463762 332.357 0.263713 332.219 0.723659L332.187 0.743676Z" fill="black"/>
</svg>
