<svg width="349" height="265" viewBox="0 0 349 265" fill="none" xmlns="http://www.w3.org/2000/svg">
<path d="M340.789 1.05987C351.231 18.3162 350.338 40.3888 339.938 57.4401C335.127 65.3305 328.488 72.1449 320.788 77.4017C312.384 83.1402 302.026 87.9871 291.552 87.649C280.984 87.3108 272.255 80.9063 263.473 75.9261C256.287 71.858 248.524 68.958 240.351 67.4517C224.468 64.521 207.46 66.5294 193.068 73.8255C185.904 77.453 179.433 82.4229 174.317 88.52C171.512 91.8708 168.959 95.8468 168.55 100.253C168.203 103.952 169.737 107.354 172.479 109.855C178.225 115.091 187.049 116.556 190.852 123.822C195.169 132.061 191.839 142.287 185.442 148.497C178.172 155.547 167.835 158.703 158.045 160.702C146.762 163.007 135.218 163.632 123.725 163.95C102.915 164.524 81.6317 164.104 61.5778 170.406C52.575 173.234 44.0555 177.445 36.765 183.358C30.2205 188.666 24.7789 195.173 20.3983 202.264C11.1434 217.235 6.34263 234.441 2.61337 251.4C1.68893 255.581 0.838052 259.782 0.00815945 263.983C-0.0863852 264.465 0.669973 264.67 0.764518 264.188C4.23116 246.676 8.02344 228.928 15.6921 212.634C23.4447 196.157 35.5149 182.221 52.638 174.576C71.9462 165.958 93.6809 165.343 114.533 164.913C125.984 164.677 137.466 164.472 148.842 162.987C158.843 161.685 169.233 159.595 178.12 154.738C185.694 150.598 191.881 144.06 193.247 135.463C193.835 131.774 193.531 127.91 192.018 124.457C190.516 121.045 187.879 118.514 184.727 116.515C177.91 112.191 167.342 108.758 169.569 98.7365C170.64 93.9203 173.97 89.8009 177.353 86.2861C180.263 83.2529 183.53 80.5477 187.049 78.2113C201.021 68.9273 218.627 65.4945 235.298 67.4517C243.807 68.4559 252.159 70.8947 259.754 74.7784C268.294 79.154 276.089 85.3946 285.628 87.6182C295.565 89.9444 305.724 86.737 314.453 82.1155C322.511 77.8526 329.727 72.0322 335.463 65.0436C347.302 50.636 352.04 31.3814 347.008 13.4283C345.747 8.95024 343.878 4.65668 341.462 0.650017C341.199 0.219633 340.527 0.609033 340.779 1.03942L340.789 1.05987Z" fill="black"/>
</svg>
