<svg width="367" height="494" viewBox="0 0 367 494" fill="none" xmlns="http://www.w3.org/2000/svg">
<path d="M1.00998 0.470352C0.029982 21.6004 6.56996 42.9601 19.49 59.7501C32.61 76.8001 52 87.7801 73.39 90.1901C83.91 91.3801 94.71 90.4902 104.84 87.3502C115.89 83.9202 125.21 77.57 134.1 70.34C144.05 62.26 153.74 54.1204 165.75 49.2404C177.4 44.5004 190.15 42.4901 202.69 43.4801C213.75 44.3601 225.23 47.6799 233.76 55.0499C242.96 62.9899 246.33 74.78 244.19 86.57C242.03 98.48 235.6 109.4 228.26 118.85C221.38 127.71 213.36 136.15 203.44 141.6C198.02 144.58 192.11 146.48 185.94 147.01C179.16 147.59 172.32 146.8 165.55 147.68C157.41 148.73 147.69 153.66 146.46 162.69C145.09 172.77 155.28 179.53 164.17 180.18C170.44 180.64 176.68 179 182.6 177.1C188.58 175.19 194.4 172.82 200.13 170.27C212.08 164.94 223.65 158.77 235.84 153.99C248.38 149.07 261.63 145.77 275.1 144.9C299.09 143.35 323.66 150.05 341.55 166.62C350.11 174.55 356.47 184.4 360.18 195.46C364.15 207.29 365.25 219.87 365.38 232.29C365.65 258.07 365.03 285.54 351.04 308.06C344.43 318.71 335.97 328.35 326.92 336.99C318.22 345.28 308.57 352.64 297.98 358.34C274.68 370.89 246.8 374.42 220.81 370.17C213.99 369.05 207.27 367.23 200.98 364.33C195.28 361.7 189.97 358.32 184.82 354.75C174.98 347.93 165.29 340.65 157 331.96C149.1 323.68 142.46 313.9 139.5 302.74C136.81 292.62 137.42 281.78 140.67 271.87C147.45 251.17 165.41 236.28 187.28 234.64C208.87 233.01 230.2 243.71 240.08 263.26C249.54 281.98 248.61 308.25 233.19 323.68C229.02 327.86 223.58 331.27 217.57 331.75C211.91 332.2 206.64 329.88 202.53 326.08C198.47 322.33 195.5 317.51 193.02 312.62C190.48 307.61 187.84 301.38 189.23 295.66C190.74 289.44 196.73 287.11 202.54 288.4C207.89 289.59 212.77 292.75 216.98 296.13C217.17 296.28 217.56 296.28 217.61 295.96C219.44 283.09 214.51 268.27 200.81 264.44C187.74 260.78 177.76 271.91 173.86 283.2C166.18 305.41 178.19 331.8 198.48 342.74C220.93 354.84 250.01 347.48 267.49 330.05C287.25 310.35 291.4 278.96 282.85 253.18C278.36 239.63 270.39 226.95 257.46 220.16C244.02 213.1 227.57 211.33 212.6 212.06C182.5 213.54 154.04 226.87 132.34 247.55C121.81 257.59 112.82 269.25 105.57 281.85C97.95 295.08 91.63 309.64 89.62 324.88C88.62 332.45 88.77 340.21 90.63 347.64C92.3 354.29 95.25 361.12 100.77 365.46C106.29 369.8 113.58 371.23 120.41 372.45C128.06 373.81 135.7 375.23 143.24 377.12C158.34 380.9 173.67 386.61 185.53 397.02C196.03 406.23 203.82 419.49 205.06 433.55C206.39 448.59 199.01 461.87 186.98 470.56C175.01 479.21 159.89 483.15 145.88 487.18C138.78 489.22 131.62 491.09 124.39 492.62C123.92 492.72 124.12 493.44 124.59 493.34C138.67 490.36 152.56 486.27 166.15 481.55C178.18 477.37 189.85 471.55 197.8 461.24C213.68 440.65 204.06 412.28 186.06 396.48C175.48 387.19 162.09 381.57 148.68 377.78C141.58 375.77 134.36 374.24 127.11 372.89C119.86 371.54 112.48 370.79 105.86 367.69C91.3 360.86 88.65 341.34 90.11 327.07C91.68 311.68 97.91 296.96 105.44 283.59C119.36 258.86 140.05 237.58 165.69 225.05C179.42 218.34 194.43 214.13 209.68 212.99C224.68 211.86 241.02 213.28 254.81 219.68C268.8 226.18 277.39 239.09 282.13 253.38C286.52 266.61 287.55 281.01 284.88 294.7C282.25 308.15 275.94 320.99 265.96 330.5C256.7 339.32 244.65 345.27 232.01 347.22C219.5 349.16 206.23 347.1 195.53 340.11C185.48 333.55 178.04 323.18 174.52 311.75C171.02 300.37 171.49 287.61 177.41 277.1C180.85 271 186.4 265.43 193.65 264.59C201.06 263.73 208.45 267.8 212.59 273.83C216.96 280.2 217.94 288.27 216.88 295.77L217.51 295.6C211.24 290.57 199.8 283.23 192.09 289.64C183.78 296.55 190.17 309.53 194.45 316.84C199.34 325.21 207.03 333.35 217.57 332.5C228.11 331.65 236.56 322.83 241.13 313.9C250.45 295.66 248.31 272.28 236.39 255.72C224.26 238.87 202.49 231.17 182.27 234.48C161.42 237.89 145.14 253.55 139.34 273.66C136.54 283.37 136.23 293.85 138.97 303.61C142.06 314.62 148.65 324.3 156.48 332.5C164.62 341.01 174.09 348.16 183.71 354.89C189.33 358.82 195.14 362.55 201.42 365.35C207.53 368.07 214.02 369.82 220.61 370.9C246.25 375.09 273.75 371.81 296.91 359.77C307.88 354.06 317.87 346.58 326.85 338.1C335.83 329.62 344.1 320.24 350.77 309.9C358.04 298.63 362.25 286.25 364.08 272.99C365.89 259.87 366.23 246.39 366.14 233.16C366.06 220.68 365.03 208.01 361.17 196.07C357.61 185.07 351.5 175.16 343.16 167.13C326.02 150.6 302.2 143.23 278.69 143.99C265.14 144.43 251.71 147.35 238.99 152.01C226.63 156.54 214.95 162.67 203.01 168.16C196.56 171.12 190.01 173.9 183.26 176.12C176.51 178.34 168.57 180.53 161.14 179.04C155.08 177.83 149.09 173.57 147.49 167.34C145.93 161.29 149.46 155.78 154.34 152.51C165.64 144.93 180.04 149.77 192.55 146.72C203.59 144.03 212.98 136.93 220.71 128.84C228.75 120.43 235.92 110.72 240.67 100.06C245.19 89.9402 247.58 78.1899 243.51 67.5099C235.32 45.9899 207.86 40.7601 187.58 42.9801C175.26 44.3301 163.23 48.45 152.76 55.09C141.84 62.03 132.76 71.4501 121.92 78.5001C101.7 91.6501 75.57 93.1904 53.29 84.4904C30.82 75.7104 14.09 56.3301 6.42997 33.6901C2.81997 23.0101 1.21997 11.7401 1.74997 0.480117C1.76997 0.000117183 1.01997 0.000117183 0.999972 0.480117L1.00998 0.470352Z" fill="black"/>
</svg>
