<svg width="329" height="399" viewBox="0 0 329 399" fill="none" xmlns="http://www.w3.org/2000/svg">
<path d="M327.6 1.08052C322.24 24.8505 304.95 44.7805 282.27 53.6005C268.66 58.8905 253.64 61.3504 239.17 62.7304C224.11 64.1704 209.42 63.0404 194.63 59.9604C180.86 57.0904 167.23 53.3305 153.18 52.0505C140.15 50.8605 126.97 51.5804 114.11 53.9904C88.67 58.7604 63.39 70.1105 43.93 87.3405C26.98 102.351 16.84 123 14.93 145.54C13.11 167.1 18.8 189.5 32.12 206.72C44.92 223.27 64.16 234.15 84.56 238.18C105.19 242.25 127.38 239.39 145.55 228.49C163.71 217.6 178.99 197.42 174.95 175.22C173.22 165.72 168.21 156.57 160.49 150.64C152.55 144.54 142.31 142.77 132.79 145.92C123.48 149 115.43 156.271 112.16 165.601C110.22 171.121 110.1 176.74 113.4 181.73C115.08 184.27 117.13 186.63 117.95 189.64C118.68 192.34 118.46 195.221 117.56 197.851C115.66 203.491 110.89 207.76 105.07 209C98.83 210.33 92.14 208.42 87 204.78C76.06 197.01 71.87 182.27 70.88 169.53C69.82 155.89 72.58 141.82 79.12 129.77C82.3 123.9 86.49 118.48 91.88 114.49C96.87 110.79 102.71 108.431 108.75 107.071C121.14 104.281 134.55 105.12 146.95 107.44C159.26 109.74 171.32 114.14 181.55 121.47C192.15 129.07 199.9 139.74 205.51 151.41C211.23 163.32 215.2 176.26 217.65 189.23C220.2 202.73 220.87 216.76 218.25 230.3C215.85 242.68 210.52 254.231 202.69 264.111C188.03 282.601 166.37 294.501 144.48 302.341C117.49 312.001 88.86 316.52 60.26 317C47.39 317.22 33.96 317.15 21.89 322.23C12.66 326.11 5.25998 333.6 2.04998 343.17C-0.990023 352.23 0.89001 362.111 8.71001 368.091C18.65 375.691 31.92 374.68 43.66 376.14C50.15 376.95 56.6 378.631 61.76 382.831C66.34 386.561 69.56 391.98 69.04 398.02C69 398.5 69.75 398.5 69.79 398.02C70.77 386.62 59.97 378.88 50.06 376.51C37.53 373.51 23.65 375.94 12.04 369.39C7.02997 366.56 3.15996 362.06 1.84996 356.39C0.699964 351.4 1.54998 346.12 3.48998 341.43C8.14998 330.12 18.16 323.33 29.74 320.42C42.85 317.12 56.58 318.08 69.97 317.48C84.36 316.83 98.7 314.99 112.78 312C136.96 306.87 161.29 298.72 181.73 284.47C190.82 278.13 199.08 270.53 205.59 261.53C212.68 251.72 217.33 240.41 219.36 228.48C221.54 215.65 220.87 202.47 218.52 189.71C216.2 177.06 212.39 164.501 207.02 152.811C201.85 141.551 194.77 131.02 185.06 123.19C175.71 115.64 164.47 110.76 152.85 107.93C141.04 105.06 128.39 103.831 116.27 105.101C104.37 106.351 93.02 110.681 85.02 119.871C76.86 129.241 72.23 141.74 70.59 153.94C68.93 166.31 70.21 179.6 75.38 191.05C80.01 201.3 89.16 210.17 101.03 210.16C110.81 210.16 119.97 202.051 119.09 191.811C118.58 185.881 113.38 182.4 111.9 176.9C110.3 170.95 112.9 164.09 116.23 159.19C122.39 150.12 133.52 144.33 144.54 145.14C155.3 145.94 164.35 153.161 169.52 162.331C174.92 171.911 176.27 183.271 173.23 193.831C166.73 216.421 144.67 231.7 122.68 236.9C101.42 241.92 78.36 238.611 59.14 228.331C39.42 217.781 24.93 199.93 18.8 178.41C12.67 156.85 14.68 132.861 24.85 112.831C36.59 89.7305 59.48 74.1504 82.8 64.2504C107.75 53.6604 135.46 49.6804 162.29 53.9404C176.54 56.2004 190.43 60.3305 204.68 62.5805C219.01 64.8505 233.41 64.4604 247.75 62.4604C261.64 60.5204 275.89 57.8303 288.59 51.6503C298.81 46.6803 307.76 39.2204 314.68 30.2204C321.25 21.6804 325.94 11.7905 328.31 1.28047C328.42 0.810474 327.69 0.610523 327.59 1.08052H327.6Z" fill="black"/>
</svg>
