<svg width="479" height="184" viewBox="0 0 479 184" fill="none" xmlns="http://www.w3.org/2000/svg">
<path d="M74.68 0.560278C50.36 12.2503 24.54 24.9402 9.86997 48.7102C3.45997 59.1002 -0.350026 71.22 0.499974 83.51C1.30997 95.1 6.02997 106.16 13.03 115.35C28.9 136.19 54.59 145.17 80.13 145.38C93.48 145.49 107.66 143.85 120.29 139.35C131.32 135.41 141.49 127.78 144.16 115.8C145.25 110.92 144.98 105.1 142.14 100.81C139.35 96.5903 134.85 98.0602 132.67 101.98C130.21 106.38 130.61 112.29 131.91 116.99C133.38 122.31 136.41 127.13 140.27 131.05C149.2 140.11 161.87 143.17 174.27 141.96C188.31 140.59 201.13 134.41 213.23 127.52C226.21 120.13 238.82 112.42 252.87 107.16C266.43 102.08 280.58 98.75 294.88 96.57C309.54 94.33 324.36 93.2903 339.18 92.8103C353.25 92.3503 369.74 91.5503 381.17 101.29C386.05 105.45 389.78 111.33 390.29 117.82C390.77 124.01 387.2 129.42 386.81 135.48C386.44 141.27 390.58 143.67 395.69 144.74C402.62 146.19 409.82 146.69 416.85 145.64C430.73 143.56 444.05 133.88 458.44 138.34C464.66 140.27 470.2 144.44 473.64 149.99C476.7 154.92 477.6 160.99 477.61 166.7C477.62 172.17 476.85 177.97 474.18 182.83C473.95 183.25 474.59 183.63 474.83 183.21C479.37 174.95 479.49 163.31 476.56 154.5C473.37 144.91 464.02 137.93 454.13 136.63C440.49 134.84 428.27 143.64 415.02 145.13C407.87 145.93 399.71 145.57 392.84 143.27C384.79 140.57 388.05 132.28 389.8 126.38C391.37 121.09 391.52 116.03 389.31 110.88C387.34 106.29 383.97 102.35 379.98 99.3904C369.5 91.6304 355.45 91.6304 343 91.9504C315.68 92.6604 288.02 95.08 261.83 103.3C248.78 107.4 236.57 113.13 224.75 119.97C212.55 127.03 200.45 134.72 186.81 138.72C173.91 142.51 158.98 143.14 147.22 135.69C137.45 129.5 129.19 117.09 132.26 105.08C133.02 102.12 135.82 97.43 139.55 99.3C142.66 100.86 143.7 105.87 143.95 109C144.44 115.12 142.18 121.28 138.54 126.15C130.67 136.69 116.83 140.38 104.51 142.55C78.55 147.12 49.39 144.99 27.63 128.76C8.08998 114.19 -3.69002 89.47 3.25998 65.28C10.79 39.1 34.02 22.2404 57 10.1804C62.95 7.0604 69.01 4.1402 75.06 1.2302C75.49 1.0202 75.11 0.370298 74.68 0.580298V0.560278Z" fill="black"/>
</svg>
