<?xml version="1.0" encoding="UTF-8"?>
<svg id="Camada_2" data-name="Camada 2" xmlns="http://www.w3.org/2000/svg" viewBox="0 0 263.64 343.48">
  <defs>
    <style>
      .cls-1 {
        fill: #fab93f;
        opacity: .44;
      }
    </style>
  </defs>
  <g id="Camada_9" data-name="Camada 9">
    <path class="cls-1" d="m127.1,23.81s32.51,14.07,42.1-17.55c0,0,66.94,26.68,87.17-6.26,0,0-6.2,30.72,7.27,37.87,0,0-30.77,69.49-136.54-14.07Z"/>
  </g>
  <g id="Camada_14" data-name="Camada 14">
    <path class="cls-1" d="m124.47,341.77s20.83-60.81,58.91-60.64c0,0-32.23-.85-44.9-63.83,0,0-40.33-22.32-74.19-16.36,0,0-19.74,10.78-35.57,10.78,0,0-16.9,72.31,38.22,98.18,0,0-16.07,16.85-6.69,26.13,0,0,5.01,11.76,64.22,5.75Z"/>
  </g>
  <g id="Camada_17" data-name="Camada 17">
    <path class="cls-1" d="m255.29,264.51s-5.59-27.75,3.08-48.6c0,0-74.75-16.21-101.29-67.72,0,0-26.56,40.02-89.08,19.79,0,0,7.21,11.96,2.77,25.89,0,0,33.37-7.32,78.23,17.53,0,0,10.47,57.87,42.47,63.83,0,0,45.37-21.45,63.83-10.72Z"/>
  </g>
  <g id="Camada_18" data-name="Camada 18">
    <path class="cls-1" d="m95.54,70.96s24.75,48.44,70.29,47c0,0,64.51,3.78,70.29-49.61,0,0-42.57,23.98-110.6-35.75,0,0,9.43,35.37-29.98,38.37Z"/>
  </g>
  <g id="Camada_19" data-name="Camada 19">
    <path class="cls-1" d="m0,79.4s28.83-1.32,28.41-32.33c0-.45-.02-.9-.04-1.36-1.3-32.34,38.71,35.19,57.51,26.96,0,0,24.56,55.34,68.86,51.39.47-.04.95-.09,1.43-.15,0,0-10.88,60.64-89.73,38.02,0,0-7.03-83.55-44.47-63.63,0,0-19.06-1.21-21.96-18.9Z"/>
  </g>
</svg>