<?xml version="1.0" encoding="UTF-8"?>
<svg id="Camada_2" data-name="Camada 2" xmlns="http://www.w3.org/2000/svg" viewBox="0 0 373.56 357.35">
  <defs>
    <style>
      .cls-1 {
        fill: #57ffa5;
        opacity: .44;
      }
    </style>
  </defs>
  <g id="Camada_10" data-name="Camada 10">
    <path class="cls-1" d="m35.31,84.49s61.23-.79,65.89-55.32c0,0,22.84-13.96,27.67-28.96-.38,1.17,7.37,3.49,8.08,3.57,4.67.55,9.41-2.52,14.1-3.33,3.54-.62,7.34-.79,10.58.79,4.69,2.28,7.08,7.81,7.13,13.02.08,7.56-3.6,14.66-5.97,21.7-2.1,6.22-3.91,12.56-5.18,19-1.96,9.89-4.76,27.42,6.38,33.22,0,0,34.02,8.16,39.2,26.66,0,0,5.74,12.02,11.41,9.89,0,0-11.94,47.09-79.13,40.52,0,0-74.51-7.28-106.61-59.01,0,0,5.3-11.58,6.79-21.94"/>
  </g>
  <g id="Camada_11" data-name="Camada 11">
    <path class="cls-1" d="m199.23,159.1s8.19-3.4,15.87-21.38c0,0,20.04,5.44,27.66-9.88,0,0,2.34-23.48,23.72-18.44,0,0,13.37,4.06,16.07,3.38,0,0,48.09-35.26,50.87-2.54,0,0,41.06-6.17,40.03,6.94,0,0,4.23,30.79-39.26,23.57,0,0-23.76,2.3-18.66,25.65,0,0,5.03,24.12-36.47,35.19,0,0,11.74,28.06,3.1,27.11,0,0-5.71,9.02-40.46-16.54,0,0-30.82-23.14-42.46-53.07Z"/>
  </g>
  <g id="Camada_12" data-name="Camada 12">
    <path class="cls-1" d="m244.66,223.09s-15.8-8.03-18.11-15.21c0,0-81.63,8.16-94.74,70.44,0,0,76.09-56.32,112.85-55.23Z"/>
  </g>
  <g id="Camada_13" data-name="Camada 13">
    <path class="cls-1" d="m121.81,281.32s2.19-19.77,7.72-26.19c1.15-1.34.76-3.4-.73-4.35-6.2-3.94-17.12-11.88-13.52-17.09,0,0-86.86-7.43-113.78,72.01,0,0,6.91,12.54-1.5,28.46,0,0,35.59,40.3,42.36,14.66,0,0,17.32-43.66,79.45-67.5Z"/>
  </g>
  <g id="Camada_16" data-name="Camada 16">
    <path class="cls-1" d="m125.66,173.88s-16.04,47.45,7.89,67.43c0,0,24.47-38.17,83.78-42.29,0,0-25.59-27.96-25.02-37.32,0,0-26.18,24.41-65.19,12.17"/>
  </g>
</svg>