<svg width="29" height="285" viewBox="0 0 29 285" fill="none" xmlns="http://www.w3.org/2000/svg">
<path d="M14.5 29C22.5081 29 29 22.5081 29 14.5C29 6.49187 22.5081 0 14.5 0C6.49187 0 0 6.49187 0 14.5C0 22.5081 6.49187 29 14.5 29Z" fill="white"/>
<path d="M14.5 93C22.5081 93 29 86.5081 29 78.5C29 70.4919 22.5081 64 14.5 64C6.49187 64 0 70.4919 0 78.5C0 86.5081 6.49187 93 14.5 93Z" fill="white"/>
<path d="M14.5 157C22.5081 157 29 150.508 29 142.5C29 134.492 22.5081 128 14.5 128C6.49187 128 0 134.492 0 142.5C0 150.508 6.49187 157 14.5 157Z" fill="white"/>
<path d="M14.5 221C22.5081 221 29 214.508 29 206.5C29 198.492 22.5081 192 14.5 192C6.49187 192 0 198.492 0 206.5C0 214.508 6.49187 221 14.5 221Z" fill="white"/>
<path d="M14.5 285C22.5081 285 29 278.508 29 270.5C29 262.492 22.5081 256 14.5 256C6.49187 256 0 262.492 0 270.5C0 278.508 6.49187 285 14.5 285Z" fill="white"/>
</svg>
