<?xml version="1.0" encoding="UTF-8"?>
<svg id="Camada_2" data-name="Camada 2" xmlns="http://www.w3.org/2000/svg" xmlns:xlink="http://www.w3.org/1999/xlink" viewBox="0 0 1658.3 533.16">
  <defs>
    <style>
      .cls-1 {
        stroke: #1d1d1b;
      }

      .cls-1, .cls-2 {
        fill: none;
        stroke-miterlimit: 10;
        stroke-width: 3px;
      }

      .cls-2 {
        stroke: #fff;
      }

      .cls-3 {
        fill: #1d1d1b;
      }
    </style>
  </defs>
  <g id="Camada_4" data-name="Camada 4">
    <g>
      <path class="cls-1" d="m21.02,338.97H2.66c-.64,0-1.16-.52-1.16-1.16v-17.63c0-10.38,8.74-18.78,19.52-18.78s19.52,8.41,19.52,18.78-8.22,18.28-18.55,18.76c0,0,0,0-.01,0-.32.02-.64.03-.96.03Z"/>
      <path class="cls-1" d="m1.5,337.71v38.79-38.79Z"/>
    </g>
    <g>
      <path class="cls-1" d="m54.36,338.95h18.36c.64,0,1.16.52,1.16,1.16v17.63c0,10.38-8.74,18.78-19.52,18.78-10.78,0-19.52-8.41-19.52-18.78,0-10.06,8.22-18.28,18.55-18.76,0,0,0,0,.01,0,.32-.02.64-.03.96-.03Z"/>
      <path class="cls-1" d="m73.88,340.21v-38.79s0,38.79,0,38.79Z"/>
    </g>
    <g>
      <path class="cls-1" d="m118.38,338.99h-18.36c-.64,0-1.16-.52-1.16-1.16v-17.63c0-10.38,8.74-18.78,19.52-18.78s19.52,8.41,19.52,18.78-8.22,18.28-18.55,18.76c0,0,0,0-.01,0-.32.02-.64.03-.96.03Z"/>
      <path class="cls-1" d="m98.86,337.73v38.79-38.79Z"/>
    </g>
    <g>
      <path class="cls-1" d="m151.72,338.96h18.36c.64,0,1.16.52,1.16,1.16v17.63c0,10.38-8.74,18.78-19.52,18.78-10.78,0-19.52-8.41-19.52-18.78,0-10.06,8.22-18.28,18.55-18.76,0,0,0,0,.01,0,.32-.02.64-.03.96-.03Z"/>
      <path class="cls-1" d="m171.24,340.22v-38.79s0,38.79,0,38.79Z"/>
    </g>
    <g>
      <path class="cls-1" d="m21.02,429.2H2.66c-.64,0-1.16-.52-1.16-1.16v-17.63c0-10.38,8.74-18.78,19.52-18.78s19.52,8.41,19.52,18.78-8.22,18.28-18.55,18.76c0,0,0,0-.01,0-.32.02-.64.03-.96.03Z"/>
      <path class="cls-1" d="m1.5,427.94v38.79-38.79Z"/>
    </g>
    <g>
      <path class="cls-1" d="m54.36,429.18h18.36c.64,0,1.16.52,1.16,1.16v17.63c0,10.38-8.74,18.78-19.52,18.78s-19.52-8.41-19.52-18.78c0-10.06,8.22-18.28,18.55-18.76,0,0,0,0,.01,0,.32-.02.64-.03.96-.03Z"/>
      <path class="cls-1" d="m73.88,430.44v-38.79s0,38.79,0,38.79Z"/>
    </g>
    <g>
      <path class="cls-1" d="m120.57,429.21h-18.36c-.64,0-1.16-.52-1.16-1.16v-17.63c0-10.38,8.74-18.78,19.52-18.78s19.52,8.41,19.52,18.78-8.22,18.28-18.55,18.76c0,0,0,0-.01,0-.32.02-.64.03-.96.03Z"/>
      <path class="cls-1" d="m101.06,427.95v38.79-38.79Z"/>
    </g>
    <g>
      <path class="cls-1" d="m153.92,429.19h18.36c.64,0,1.16.52,1.16,1.16v17.63c0,10.38-8.74,18.78-19.52,18.78-10.78,0-19.52-8.41-19.52-18.78,0-10.06,8.22-18.28,18.55-18.76,0,0,0,0,.01,0,.32-.02.64-.03.96-.03Z"/>
      <path class="cls-1" d="m173.44,430.45v-38.79s0,38.79,0,38.79Z"/>
    </g>
    <g>
      <path class="cls-1" d="m220.78,334.68h-18.36c-.64,0-1.16-.52-1.16-1.16v-17.63c0-10.38,8.74-18.78,19.52-18.78s19.52,8.41,19.52,18.78-8.22,18.28-18.55,18.76c0,0,0,0-.01,0-.32.02-.64.03-.96.03Z"/>
      <path class="cls-1" d="m201.26,333.42v38.79-38.79Z"/>
    </g>
    <g>
      <path class="cls-1" d="m254.12,334.65h18.36c.64,0,1.16.52,1.16,1.16v17.63c0,10.38-8.74,18.78-19.52,18.78-10.78,0-19.52-8.41-19.52-18.78,0-10.06,8.22-18.28,18.55-18.76,0,0,0,0,.01,0,.32-.02.64-.03.96-.03Z"/>
      <path class="cls-1" d="m273.64,335.91v-38.79s0,38.79,0,38.79Z"/>
    </g>
    <g>
      <path class="cls-1" d="m318.14,334.69h-18.36c-.64,0-1.16-.52-1.16-1.16v-17.63c0-10.38,8.74-18.78,19.52-18.78s19.52,8.41,19.52,18.78-8.22,18.28-18.55,18.76c0,0,0,0-.01,0-.32.02-.64.03-.96.03Z"/>
      <path class="cls-1" d="m298.62,333.43v38.79-38.79Z"/>
    </g>
    <g>
      <path class="cls-1" d="m351.48,334.66h18.36c.64,0,1.16.52,1.16,1.16v17.63c0,10.38-8.74,18.78-19.52,18.78-10.78,0-19.52-8.41-19.52-18.78,0-10.06,8.22-18.28,18.55-18.76,0,0,0,0,.01,0,.32-.02.64-.03.96-.03Z"/>
      <path class="cls-1" d="m371,335.92v-38.79s0,38.79,0,38.79Z"/>
    </g>
    <g>
      <path class="cls-1" d="m220.78,424.9h-18.36c-.64,0-1.16-.52-1.16-1.16v-17.63c0-10.38,8.74-18.78,19.52-18.78s19.52,8.41,19.52,18.78-8.22,18.28-18.55,18.76c0,0,0,0-.01,0-.32.02-.64.03-.96.03Z"/>
      <path class="cls-1" d="m201.26,423.64v38.79-38.79Z"/>
    </g>
    <g>
      <path class="cls-1" d="m254.12,424.88h18.36c.64,0,1.16.52,1.16,1.16v17.63c0,10.38-8.74,18.78-19.52,18.78-10.78,0-19.52-8.41-19.52-18.78,0-10.06,8.22-18.28,18.55-18.76,0,0,0,0,.01,0,.32-.02.64-.03.96-.03Z"/>
      <path class="cls-1" d="m273.64,426.14v-38.79s0,38.79,0,38.79Z"/>
    </g>
    <g>
      <path class="cls-1" d="m320.33,424.91h-18.36c-.64,0-1.16-.52-1.16-1.16v-17.63c0-10.38,8.74-18.78,19.52-18.78s19.52,8.41,19.52,18.78-8.22,18.28-18.55,18.76c0,0,0,0-.01,0-.32.02-.64.03-.96.03Z"/>
      <path class="cls-1" d="m300.82,423.65v38.79-38.79Z"/>
    </g>
    <g>
      <path class="cls-1" d="m353.68,424.89h18.36c.64,0,1.16.52,1.16,1.16v17.63c0,10.38-8.74,18.78-19.52,18.78-10.78,0-19.52-8.41-19.52-18.78,0-10.06,8.22-18.28,18.55-18.76,0,0,0,0,.01,0,.32-.02.64-.03.96-.03Z"/>
      <path class="cls-1" d="m373.2,426.15v-38.79s0,38.79,0,38.79Z"/>
    </g>
    <g>
      <path class="cls-1" d="m21.02,157.57H2.66c-.64,0-1.16-.52-1.16-1.16v-17.63c0-10.38,8.74-18.78,19.52-18.78s19.52,8.41,19.52,18.78-8.22,18.28-18.55,18.76c0,0,0,0-.01,0-.32.02-.64.03-.96.03Z"/>
      <path class="cls-1" d="m1.5,156.31v38.79-38.79Z"/>
    </g>
    <g>
      <path class="cls-1" d="m54.36,157.54h18.36c.64,0,1.16.52,1.16,1.16v17.63c0,10.38-8.74,18.78-19.52,18.78-10.78,0-19.52-8.41-19.52-18.78,0-10.06,8.22-18.28,18.55-18.76,0,0,0,0,.01,0,.32-.02.64-.03.96-.03Z"/>
      <path class="cls-1" d="m73.88,158.8v-38.79s0,38.79,0,38.79Z"/>
    </g>
    <g>
      <path class="cls-1" d="m118.38,157.58h-18.36c-.64,0-1.16-.52-1.16-1.16v-17.63c0-10.38,8.74-18.78,19.52-18.78s19.52,8.41,19.52,18.78-8.22,18.28-18.55,18.76c0,0,0,0-.01,0-.32.02-.64.03-.96.03Z"/>
      <path class="cls-1" d="m98.86,156.32v38.79-38.79Z"/>
    </g>
    <g>
      <path class="cls-1" d="m151.72,157.55h18.36c.64,0,1.16.52,1.16,1.16v17.63c0,10.38-8.74,18.78-19.52,18.78-10.78,0-19.52-8.41-19.52-18.78,0-10.06,8.22-18.28,18.55-18.76,0,0,0,0,.01,0,.32-.02.64-.03.96-.03Z"/>
      <path class="cls-1" d="m171.24,158.81v-38.79s0,38.79,0,38.79Z"/>
    </g>
    <g>
      <path class="cls-1" d="m22.65,247.8H4.29c-.64,0-1.16-.52-1.16-1.16v-17.63c0-10.38,8.74-18.78,19.52-18.78s19.52,8.41,19.52,18.78-8.22,18.28-18.55,18.76c0,0,0,0-.01,0-.32.02-.64.03-.96.03Z"/>
      <path class="cls-1" d="m3.13,246.54v38.79-38.79Z"/>
    </g>
    <g>
      <path class="cls-1" d="m56,247.78h18.36c.64,0,1.16.52,1.16,1.16v17.63c0,10.38-8.74,18.78-19.52,18.78s-19.52-8.41-19.52-18.78c0-10.06,8.22-18.28,18.55-18.76,0,0,0,0,.01,0,.32-.02.64-.03.96-.03Z"/>
      <path class="cls-1" d="m75.52,249.04v-38.79s0,38.79,0,38.79Z"/>
    </g>
    <g>
      <path class="cls-1" d="m122.21,247.82h-18.36c-.64,0-1.16-.52-1.16-1.16v-17.63c0-10.38,8.74-18.78,19.52-18.78s19.52,8.41,19.52,18.78-8.22,18.28-18.55,18.76c0,0,0,0-.01,0-.32.02-.64.03-.96.03Z"/>
      <path class="cls-1" d="m102.69,246.56v38.79-38.79Z"/>
    </g>
    <g>
      <path class="cls-1" d="m155.56,247.79h18.36c.64,0,1.16.52,1.16,1.16v17.63c0,10.38-8.74,18.78-19.52,18.78-10.78,0-19.52-8.41-19.52-18.78,0-10.06,8.22-18.28,18.55-18.76,0,0,0,0,.01,0,.32-.02.64-.03.96-.03Z"/>
      <path class="cls-1" d="m175.07,249.05v-38.79s0,38.79,0,38.79Z"/>
    </g>
    <g>
      <path class="cls-1" d="m220.78,153.27h-18.36c-.64,0-1.16-.52-1.16-1.16v-17.63c0-10.38,8.74-18.78,19.52-18.78s19.52,8.41,19.52,18.78-8.22,18.28-18.55,18.76c0,0,0,0-.01,0-.32.02-.64.03-.96.03Z"/>
      <path class="cls-1" d="m201.26,152.01v38.79-38.79Z"/>
    </g>
    <g>
      <path class="cls-1" d="m254.12,153.24h18.36c.64,0,1.16.52,1.16,1.16v17.63c0,10.38-8.74,18.78-19.52,18.78-10.78,0-19.52-8.41-19.52-18.78,0-10.06,8.22-18.28,18.55-18.76,0,0,0,0,.01,0,.32-.02.64-.03.96-.03Z"/>
      <path class="cls-1" d="m273.64,154.5v-38.79s0,38.79,0,38.79Z"/>
    </g>
    <g>
      <path class="cls-1" d="m318.14,153.28h-18.36c-.64,0-1.16-.52-1.16-1.16v-17.63c0-10.38,8.74-18.78,19.52-18.78s19.52,8.41,19.52,18.78-8.22,18.28-18.55,18.76c0,0,0,0-.01,0-.32.02-.64.03-.96.03Z"/>
      <path class="cls-1" d="m298.62,152.02v38.79-38.79Z"/>
    </g>
    <g>
      <path class="cls-1" d="m351.48,153.26h18.36c.64,0,1.16.52,1.16,1.16v17.63c0,10.38-8.74,18.78-19.52,18.78-10.78,0-19.52-8.41-19.52-18.78,0-10.06,8.22-18.28,18.55-18.76,0,0,0,0,.01,0,.32-.02.64-.03.96-.03Z"/>
      <path class="cls-1" d="m371,154.52v-38.79s0,38.79,0,38.79Z"/>
    </g>
    <g>
      <path class="cls-1" d="m222.41,243.51h-18.36c-.64,0-1.16-.52-1.16-1.16v-17.63c0-10.38,8.74-18.78,19.52-18.78s19.52,8.41,19.52,18.78-8.22,18.28-18.55,18.76c0,0,0,0-.01,0-.32.02-.64.03-.96.03Z"/>
      <path class="cls-1" d="m202.89,242.25v38.79-38.79Z"/>
    </g>
    <g>
      <path class="cls-1" d="m255.76,243.48h18.36c.64,0,1.16.52,1.16,1.16v17.63c0,10.38-8.74,18.78-19.52,18.78-10.78,0-19.52-8.41-19.52-18.78,0-10.06,8.22-18.28,18.55-18.76,0,0,0,0,.01,0,.32-.02.64-.03.96-.03Z"/>
      <path class="cls-1" d="m275.28,244.74v-38.79s0,38.79,0,38.79Z"/>
    </g>
    <g>
      <path class="cls-1" d="m321.97,243.52h-18.36c-.64,0-1.16-.52-1.16-1.16v-17.63c0-10.38,8.74-18.78,19.52-18.78s19.52,8.41,19.52,18.78-8.22,18.28-18.55,18.76c0,0,0,0-.01,0-.32.02-.64.03-.96.03Z"/>
      <path class="cls-1" d="m302.45,242.26v38.79-38.79Z"/>
    </g>
    <g>
      <path class="cls-1" d="m355.31,243.49h18.36c.64,0,1.16.52,1.16,1.16v17.63c0,10.38-8.74,18.78-19.52,18.78-10.78,0-19.52-8.41-19.52-18.78,0-10.06,8.22-18.28,18.55-18.76,0,0,0,0,.01,0,.32-.02.64-.03.96-.03Z"/>
      <path class="cls-1" d="m374.83,244.75v-38.79s0,38.79,0,38.79Z"/>
    </g>
    <path class="cls-1" d="m1327.96,164.98l-21.21,21.21c-.74.74-1.93.74-2.67,0l-20.37-20.37c-11.99-11.99-11.61-31.8.85-44.25,12.45-12.45,32.26-12.83,44.25-.85,11.62,11.62,11.62,30.62.24,43.11,0,0,0,.01-.01.01-.34.39-.7.76-1.07,1.13Z"/>
    <path class="cls-3" d="m1360.18,175.26c13.73,13.73,35.98,13.73,49.71,0,13.73-13.73,13.73-35.98,0-49.71-13.73-13.73-35.98-13.73-49.71,0-13.73,13.73-13.73,35.98,0,49.71Zm39.95-3.23c-2.79,2.79-7.32,2.79-10.11,0-2.79-2.79-2.79-7.32,0-10.11,2.79-2.79,7.32-2.79,10.11,0,2.79,2.79,2.79,7.32,0,10.11Zm9.3-29.52c2.79,2.79,2.79,7.32,0,10.11-2.79,2.79-7.32,2.79-10.11,0-2.79-2.79-2.79-7.32,0-10.11,2.79-2.79,7.32-2.79,10.11,0Zm-33.15,25.89c-2.79,2.79-7.32,2.79-10.11,0-2.79-2.79-2.79-7.32,0-10.11,2.79-2.79,7.32-2.79,10.11,0,2.79,2.79,2.79,7.32,0,10.11Zm11.46-21.58c1.4,1.4,1.4,3.66,0,5.06-1.4,1.4-3.66,1.4-5.06,0s-1.4-3.66,0-5.06c1.4-1.4,3.66-1.4,5.06,0Zm5.19-20.81c2.79,2.79,2.79,7.32,0,10.11-2.79,2.79-7.32,2.79-10.11,0-2.79-2.79-2.79-7.32,0-10.11s7.32-2.79,10.11,0Zm-19.41,9.3c2.79,2.79,2.79,7.32,0,10.11-2.79,2.79-7.32,2.79-10.11,0-2.79-2.79-2.79-7.32,0-10.11,2.79-2.79,7.32-2.79,10.11,0Z"/>
    <path class="cls-1" d="m1484.48,164.98l-21.21,21.21c-.74.74-1.93.74-2.67,0l-20.37-20.37c-11.99-11.99-11.61-31.8.85-44.25,12.45-12.45,32.26-12.83,44.25-.85,11.62,11.62,11.62,30.62.24,43.11,0,0,0,.01-.01.01-.34.39-.7.76-1.07,1.13Z"/>
    <path class="cls-3" d="m1517.22,175.26c13.73,13.73,35.98,13.73,49.71,0,13.73-13.73,13.73-35.98,0-49.71-13.73-13.73-35.98-13.73-49.71,0-13.73,13.73-13.73,35.98,0,49.71Zm39.95-3.23c-2.79,2.79-7.32,2.79-10.11,0-2.79-2.79-2.79-7.32,0-10.11,2.79-2.79,7.32-2.79,10.11,0,2.79,2.79,2.79,7.32,0,10.11Zm9.3-29.52c2.79,2.79,2.79,7.32,0,10.11-2.79,2.79-7.32,2.79-10.11,0-2.79-2.79-2.79-7.32,0-10.11,2.79-2.79,7.32-2.79,10.11,0Zm-33.15,25.89c-2.79,2.79-7.32,2.79-10.11,0-2.79-2.79-2.79-7.32,0-10.11,2.79-2.79,7.32-2.79,10.11,0,2.79,2.79,2.79,7.32,0,10.11Zm11.46-21.58c1.4,1.4,1.4,3.66,0,5.06-1.4,1.4-3.66,1.4-5.06,0-1.4-1.4-1.4-3.66,0-5.06,1.4-1.4,3.66-1.4,5.06,0Zm5.19-20.81c2.79,2.79,2.79,7.32,0,10.11-2.79,2.79-7.32,2.79-10.11,0-2.79-2.79-2.79-7.32,0-10.11,2.79-2.79,7.32-2.79,10.11,0Zm-19.41,9.3c2.79,2.79,2.79,7.32,0,10.11s-7.32,2.79-10.11,0c-2.79-2.79-2.79-7.32,0-10.11,2.79-2.79,7.32-2.79,10.11,0Z"/>
    <path class="cls-1" d="m1641,163.19l-21.21,21.21c-.74.74-1.93.74-2.67,0l-20.37-20.37c-11.99-11.99-11.61-31.8.85-44.25,12.45-12.45,32.26-12.83,44.25-.85,11.62,11.62,11.62,30.62.24,43.11,0,0,0,.01-.01.01-.34.39-.7.76-1.07,1.13Z"/>
    <path class="cls-1" d="m1253.11,257.07l-21.21,21.21c-.74.74-1.93.74-2.67,0l-20.37-20.37c-11.99-11.99-11.61-31.8.85-44.25,12.45-12.45,32.26-12.83,44.25-.85,11.62,11.62,11.62,30.62.24,43.11,0,0,0,.01-.01.01-.34.39-.7.76-1.07,1.13Z"/>
    <path class="cls-3" d="m1285.34,267.35c13.73,13.73,35.98,13.73,49.71,0,13.73-13.73,13.73-35.98,0-49.71-13.73-13.73-35.98-13.73-49.71,0-13.73,13.73-13.73,35.98,0,49.71Zm39.95-3.23c-2.79,2.79-7.32,2.79-10.11,0-2.79-2.79-2.79-7.32,0-10.11s7.32-2.79,10.11,0c2.79,2.79,2.79,7.32,0,10.11Zm9.3-29.52c2.79,2.79,2.79,7.32,0,10.11-2.79,2.79-7.32,2.79-10.11,0-2.79-2.79-2.79-7.32,0-10.11,2.79-2.79,7.32-2.79,10.11,0Zm-33.15,25.89c-2.79,2.79-7.32,2.79-10.11,0-2.79-2.79-2.79-7.32,0-10.11s7.32-2.79,10.11,0c2.79,2.79,2.79,7.32,0,10.11Zm11.46-21.58c1.4,1.4,1.4,3.66,0,5.06-1.4,1.4-3.66,1.4-5.06,0-1.4-1.4-1.4-3.66,0-5.06s3.66-1.4,5.06,0Zm5.19-20.81c2.79,2.79,2.79,7.32,0,10.11-2.79,2.79-7.32,2.79-10.11,0-2.79-2.79-2.79-7.32,0-10.11,2.79-2.79,7.32-2.79,10.11,0Zm-19.41,9.3c2.79,2.79,2.79,7.32,0,10.11-2.79,2.79-7.32,2.79-10.11,0-2.79-2.79-2.79-7.32,0-10.11,2.79-2.79,7.32-2.79,10.11,0Z"/>
    <path class="cls-1" d="m1409.63,257.07l-21.21,21.21c-.74.74-1.93.74-2.67,0l-20.37-20.37c-11.99-11.99-11.61-31.8.85-44.25,12.45-12.45,32.26-12.83,44.25-.85,11.62,11.62,11.62,30.62.24,43.11,0,0,0,.01-.01.01-.34.39-.7.76-1.07,1.13Z"/>
    <path class="cls-3" d="m1442.38,267.35c13.73,13.73,35.98,13.73,49.71,0,13.73-13.73,13.73-35.98,0-49.71-13.73-13.73-35.98-13.73-49.71,0-13.73,13.73-13.73,35.98,0,49.71Zm39.95-3.23c-2.79,2.79-7.32,2.79-10.11,0s-2.79-7.32,0-10.11,7.32-2.79,10.11,0c2.79,2.79,2.79,7.32,0,10.11Zm9.3-29.52c2.79,2.79,2.79,7.32,0,10.11-2.79,2.79-7.32,2.79-10.11,0-2.79-2.79-2.79-7.32,0-10.11,2.79-2.79,7.32-2.79,10.11,0Zm-33.15,25.89c-2.79,2.79-7.32,2.79-10.11,0s-2.79-7.32,0-10.11,7.32-2.79,10.11,0c2.79,2.79,2.79,7.32,0,10.11Zm11.46-21.58c1.4,1.4,1.4,3.66,0,5.06s-3.66,1.4-5.06,0c-1.4-1.4-1.4-3.66,0-5.06s3.66-1.4,5.06,0Zm5.19-20.81c2.79,2.79,2.79,7.32,0,10.11-2.79,2.79-7.32,2.79-10.11,0-2.79-2.79-2.79-7.32,0-10.11,2.79-2.79,7.32-2.79,10.11,0Zm-19.41,9.3c2.79,2.79,2.79,7.32,0,10.11-2.79,2.79-7.32,2.79-10.11,0-2.79-2.79-2.79-7.32,0-10.11,2.79-2.79,7.32-2.79,10.11,0Z"/>
    <path class="cls-1" d="m1566.16,255.28l-21.21,21.21c-.74.74-1.93.74-2.67,0l-20.37-20.37c-11.99-11.99-11.61-31.8.85-44.25,12.45-12.45,32.26-12.83,44.25-.85,11.62,11.62,11.62,30.62.24,43.11,0,0,0,.01-.01.01-.34.39-.7.76-1.07,1.13Z"/>
    <path class="cls-3" d="m1203.62,175.63c13.73,13.73,35.98,13.73,49.71,0,13.73-13.73,13.73-35.98,0-49.71-13.73-13.73-35.98-13.73-49.71,0-13.73,13.73-13.73,35.98,0,49.71Zm39.95-3.23c-2.79,2.79-7.32,2.79-10.11,0-2.79-2.79-2.79-7.32,0-10.11,2.79-2.79,7.32-2.79,10.11,0,2.79,2.79,2.79,7.32,0,10.11Zm9.3-29.52c2.79,2.79,2.79,7.32,0,10.11-2.79,2.79-7.32,2.79-10.11,0-2.79-2.79-2.79-7.32,0-10.11,2.79-2.79,7.32-2.79,10.11,0Zm-33.15,25.89c-2.79,2.79-7.32,2.79-10.11,0s-2.79-7.32,0-10.11c2.79-2.79,7.32-2.79,10.11,0,2.79,2.79,2.79,7.32,0,10.11Zm11.46-21.58c1.4,1.4,1.4,3.66,0,5.06-1.4,1.4-3.66,1.4-5.06,0s-1.4-3.66,0-5.06,3.66-1.4,5.06,0Zm5.19-20.81c2.79,2.79,2.79,7.32,0,10.11-2.79,2.79-7.32,2.79-10.11,0-2.79-2.79-2.79-7.32,0-10.11,2.79-2.79,7.32-2.79,10.11,0Zm-19.41,9.3c2.79,2.79,2.79,7.32,0,10.11-2.79,2.79-7.32,2.79-10.11,0s-2.79-7.32,0-10.11c2.79-2.79,7.32-2.79,10.11,0Z"/>
    <path class="cls-3" d="m1598.29,266.3c13.73,13.73,35.98,13.73,49.71,0,13.73-13.73,13.73-35.98,0-49.71-13.73-13.73-35.98-13.73-49.71,0-13.73,13.73-13.73,35.98,0,49.71Zm39.95-3.23c-2.79,2.79-7.32,2.79-10.11,0-2.79-2.79-2.79-7.32,0-10.11,2.79-2.79,7.32-2.79,10.11,0,2.79,2.79,2.79,7.32,0,10.11Zm9.3-29.52c2.79,2.79,2.79,7.32,0,10.11s-7.32,2.79-10.11,0c-2.79-2.79-2.79-7.32,0-10.11,2.79-2.79,7.32-2.79,10.11,0Zm-33.15,25.89c-2.79,2.79-7.32,2.79-10.11,0-2.79-2.79-2.79-7.32,0-10.11s7.32-2.79,10.11,0,2.79,7.32,0,10.11Zm11.46-21.58c1.4,1.4,1.4,3.66,0,5.06-1.4,1.4-3.66,1.4-5.06,0-1.4-1.4-1.4-3.66,0-5.06,1.4-1.4,3.66-1.4,5.06,0Zm5.19-20.81c2.79,2.79,2.79,7.32,0,10.11-2.79,2.79-7.32,2.79-10.11,0s-2.79-7.32,0-10.11c2.79-2.79,7.32-2.79,10.11,0Zm-19.41,9.3c2.79,2.79,2.79,7.32,0,10.11-2.79,2.79-7.32,2.79-10.11,0s-2.79-7.32,0-10.11c2.79-2.79,7.32-2.79,10.11,0Z"/>
    <path class="cls-1" d="m1323.85,346.61l-21.21,21.21c-.74.74-1.93.74-2.67,0l-20.37-20.37c-11.99-11.99-11.61-31.8.85-44.25,12.45-12.45,32.26-12.83,44.25-.85,11.62,11.62,11.62,30.62.24,43.11,0,0,0,.01-.01.01-.34.39-.7.76-1.07,1.13Z"/>
    <path class="cls-3" d="m1356.08,356.9c13.73,13.73,35.98,13.73,49.71,0,13.73-13.73,13.73-35.98,0-49.71-13.73-13.73-35.98-13.73-49.71,0-13.73,13.73-13.73,35.98,0,49.71Zm39.95-3.23c-2.79,2.79-7.32,2.79-10.11,0-2.79-2.79-2.79-7.32,0-10.11,2.79-2.79,7.32-2.79,10.11,0,2.79,2.79,2.79,7.32,0,10.11Zm9.3-29.52c2.79,2.79,2.79,7.32,0,10.11s-7.32,2.79-10.11,0c-2.79-2.79-2.79-7.32,0-10.11,2.79-2.79,7.32-2.79,10.11,0Zm-33.15,25.89c-2.79,2.79-7.32,2.79-10.11,0-2.79-2.79-2.79-7.32,0-10.11s7.32-2.79,10.11,0c2.79,2.79,2.79,7.32,0,10.11Zm11.46-21.58c1.4,1.4,1.4,3.66,0,5.06-1.4,1.4-3.66,1.4-5.06,0-1.4-1.4-1.4-3.66,0-5.06,1.4-1.4,3.66-1.4,5.06,0Zm5.19-20.81c2.79,2.79,2.79,7.32,0,10.11-2.79,2.79-7.32,2.79-10.11,0-2.79-2.79-2.79-7.32,0-10.11,2.79-2.79,7.32-2.79,10.11,0Zm-19.41,9.3c2.79,2.79,2.79,7.32,0,10.11-2.79,2.79-7.32,2.79-10.11,0-2.79-2.79-2.79-7.32,0-10.11,2.79-2.79,7.32-2.79,10.11,0Z"/>
    <path class="cls-1" d="m1480.37,346.61l-21.21,21.21c-.74.74-1.93.74-2.67,0l-20.37-20.37c-11.99-11.99-11.61-31.8.85-44.25,12.45-12.45,32.26-12.83,44.25-.85,11.62,11.62,11.62,30.62.24,43.11,0,0,0,.01-.01.01-.34.39-.7.76-1.07,1.13Z"/>
    <path class="cls-3" d="m1513.12,356.9c13.73,13.73,35.98,13.73,49.71,0,13.73-13.73,13.73-35.98,0-49.71-13.73-13.73-35.98-13.73-49.71,0-13.73,13.73-13.73,35.98,0,49.71Zm39.95-3.23c-2.79,2.79-7.32,2.79-10.11,0-2.79-2.79-2.79-7.32,0-10.11,2.79-2.79,7.32-2.79,10.11,0,2.79,2.79,2.79,7.32,0,10.11Zm9.3-29.52c2.79,2.79,2.79,7.32,0,10.11-2.79,2.79-7.32,2.79-10.11,0-2.79-2.79-2.79-7.32,0-10.11,2.79-2.79,7.32-2.79,10.11,0Zm-33.15,25.89c-2.79,2.79-7.32,2.79-10.11,0-2.79-2.79-2.79-7.32,0-10.11,2.79-2.79,7.32-2.79,10.11,0,2.79,2.79,2.79,7.32,0,10.11Zm11.46-21.58c1.4,1.4,1.4,3.66,0,5.06-1.4,1.4-3.66,1.4-5.06,0s-1.4-3.66,0-5.06c1.4-1.4,3.66-1.4,5.06,0Zm5.19-20.81c2.79,2.79,2.79,7.32,0,10.11-2.79,2.79-7.32,2.79-10.11,0-2.79-2.79-2.79-7.32,0-10.11,2.79-2.79,7.32-2.79,10.11,0Zm-19.41,9.3c2.79,2.79,2.79,7.32,0,10.11-2.79,2.79-7.32,2.79-10.11,0-2.79-2.79-2.79-7.32,0-10.11,2.79-2.79,7.32-2.79,10.11,0Z"/>
    <path class="cls-1" d="m1636.9,344.83l-21.21,21.21c-.74.74-1.93.74-2.67,0l-20.37-20.37c-11.99-11.99-11.61-31.8.85-44.25,12.45-12.45,32.26-12.83,44.25-.85,11.62,11.62,11.62,30.62.24,43.11,0,0,0,.01-.01.01-.34.39-.7.76-1.07,1.13Z"/>
    <path class="cls-1" d="m1249.01,438.7l-21.21,21.21c-.74.74-1.93.74-2.67,0l-20.37-20.37c-11.99-11.99-11.61-31.8.85-44.25,12.45-12.45,32.26-12.83,44.25-.85,11.62,11.62,11.62,30.62.24,43.11,0,0,0,.01-.01.01-.34.39-.7.76-1.07,1.13Z"/>
    <path class="cls-3" d="m1281.24,448.99c13.73,13.73,35.98,13.73,49.71,0,13.73-13.73,13.73-35.98,0-49.71-13.73-13.73-35.98-13.73-49.71,0-13.73,13.73-13.73,35.98,0,49.71Zm39.95-3.23c-2.79,2.79-7.32,2.79-10.11,0-2.79-2.79-2.79-7.32,0-10.11,2.79-2.79,7.32-2.79,10.11,0,2.79,2.79,2.79,7.32,0,10.11Zm9.3-29.52c2.79,2.79,2.79,7.32,0,10.11-2.79,2.79-7.32,2.79-10.11,0-2.79-2.79-2.79-7.32,0-10.11,2.79-2.79,7.32-2.79,10.11,0Zm-33.15,25.89c-2.79,2.79-7.32,2.79-10.11,0-2.79-2.79-2.79-7.32,0-10.11,2.79-2.79,7.32-2.79,10.11,0,2.79,2.79,2.79,7.32,0,10.11Zm11.46-21.58c1.4,1.4,1.4,3.66,0,5.06-1.4,1.4-3.66,1.4-5.06,0-1.4-1.4-1.4-3.66,0-5.06,1.4-1.4,3.66-1.4,5.06,0Zm5.19-20.81c2.79,2.79,2.79,7.32,0,10.11-2.79,2.79-7.32,2.79-10.11,0-2.79-2.79-2.79-7.32,0-10.11,2.79-2.79,7.32-2.79,10.11,0Zm-19.41,9.3c2.79,2.79,2.79,7.32,0,10.11-2.79,2.79-7.32,2.79-10.11,0-2.79-2.79-2.79-7.32,0-10.11,2.79-2.79,7.32-2.79,10.11,0Z"/>
    <path class="cls-1" d="m1405.53,438.7l-21.21,21.21c-.74.74-1.93.74-2.67,0l-20.37-20.37c-11.99-11.99-11.61-31.8.85-44.25,12.45-12.45,32.26-12.83,44.25-.85,11.62,11.62,11.62,30.62.24,43.11,0,0,0,.01-.01.01-.34.39-.7.76-1.07,1.13Z"/>
    <path class="cls-3" d="m1438.27,448.99c13.73,13.73,35.98,13.73,49.71,0,13.73-13.73,13.73-35.98,0-49.71-13.73-13.73-35.98-13.73-49.71,0-13.73,13.73-13.73,35.98,0,49.71Zm39.95-3.23c-2.79,2.79-7.32,2.79-10.11,0-2.79-2.79-2.79-7.32,0-10.11,2.79-2.79,7.32-2.79,10.11,0,2.79,2.79,2.79,7.32,0,10.11Zm9.3-29.52c2.79,2.79,2.79,7.32,0,10.11-2.79,2.79-7.32,2.79-10.11,0-2.79-2.79-2.79-7.32,0-10.11,2.79-2.79,7.32-2.79,10.11,0Zm-33.15,25.89c-2.79,2.79-7.32,2.79-10.11,0-2.79-2.79-2.79-7.32,0-10.11,2.79-2.79,7.32-2.79,10.11,0,2.79,2.79,2.79,7.32,0,10.11Zm11.46-21.58c1.4,1.4,1.4,3.66,0,5.06-1.4,1.4-3.66,1.4-5.06,0-1.4-1.4-1.4-3.66,0-5.06,1.4-1.4,3.66-1.4,5.06,0Zm5.19-20.81c2.79,2.79,2.79,7.32,0,10.11-2.79,2.79-7.32,2.79-10.11,0-2.79-2.79-2.79-7.32,0-10.11,2.79-2.79,7.32-2.79,10.11,0Zm-19.41,9.3c2.79,2.79,2.79,7.32,0,10.11-2.79,2.79-7.32,2.79-10.11,0-2.79-2.79-2.79-7.32,0-10.11,2.79-2.79,7.32-2.79,10.11,0Z"/>
    <path class="cls-1" d="m1562.05,436.92l-21.21,21.21c-.74.74-1.93.74-2.67,0l-20.37-20.37c-11.99-11.99-11.61-31.8.85-44.25,12.45-12.45,32.26-12.83,44.25-.85,11.62,11.62,11.62,30.62.24,43.11,0,0,0,.01-.01.01-.34.39-.7.76-1.07,1.13Z"/>
    <path class="cls-3" d="m1199.52,357.27c13.73,13.73,35.98,13.73,49.71,0,13.73-13.73,13.73-35.98,0-49.71-13.73-13.73-35.98-13.73-49.71,0-13.73,13.73-13.73,35.98,0,49.71Zm39.95-3.23c-2.79,2.79-7.32,2.79-10.11,0-2.79-2.79-2.79-7.32,0-10.11,2.79-2.79,7.32-2.79,10.11,0,2.79,2.79,2.79,7.32,0,10.11Zm9.3-29.52c2.79,2.79,2.79,7.32,0,10.11s-7.32,2.79-10.11,0c-2.79-2.79-2.79-7.32,0-10.11,2.79-2.79,7.32-2.79,10.11,0Zm-33.15,25.89c-2.79,2.79-7.32,2.79-10.11,0-2.79-2.79-2.79-7.32,0-10.11s7.32-2.79,10.11,0c2.79,2.79,2.79,7.32,0,10.11Zm11.46-21.58c1.4,1.4,1.4,3.66,0,5.06-1.4,1.4-3.66,1.4-5.06,0-1.4-1.4-1.4-3.66,0-5.06,1.4-1.4,3.66-1.4,5.06,0Zm5.19-20.81c2.79,2.79,2.79,7.32,0,10.11-2.79,2.79-7.32,2.79-10.11,0-2.79-2.79-2.79-7.32,0-10.11s7.32-2.79,10.11,0Zm-19.41,9.3c2.79,2.79,2.79,7.32,0,10.11s-7.32,2.79-10.11,0c-2.79-2.79-2.79-7.32,0-10.11,2.79-2.79,7.32-2.79,10.11,0Z"/>
    <path class="cls-3" d="m1594.19,447.94c13.73,13.73,35.98,13.73,49.71,0,13.73-13.73,13.73-35.98,0-49.71-13.73-13.73-35.98-13.73-49.71,0-13.73,13.73-13.73,35.98,0,49.71Zm39.95-3.23c-2.79,2.79-7.32,2.79-10.11,0-2.79-2.79-2.79-7.32,0-10.11s7.32-2.79,10.11,0c2.79,2.79,2.79,7.32,0,10.11Zm9.3-29.52c2.79,2.79,2.79,7.32,0,10.11-2.79,2.79-7.32,2.79-10.11,0-2.79-2.79-2.79-7.32,0-10.11s7.32-2.79,10.11,0Zm-33.15,25.89c-2.79,2.79-7.32,2.79-10.11,0-2.79-2.79-2.79-7.32,0-10.11s7.32-2.79,10.11,0c2.79,2.79,2.79,7.32,0,10.11Zm11.46-21.58c1.4,1.4,1.4,3.66,0,5.06-1.4,1.4-3.66,1.4-5.06,0-1.4-1.4-1.4-3.66,0-5.06,1.4-1.4,3.66-1.4,5.06,0Zm5.19-20.81c2.79,2.79,2.79,7.32,0,10.11-2.79,2.79-7.32,2.79-10.11,0-2.79-2.79-2.79-7.32,0-10.11,2.79-2.79,7.32-2.79,10.11,0Zm-19.41,9.3c2.79,2.79,2.79,7.32,0,10.11s-7.32,2.79-10.11,0c-2.79-2.79-2.79-7.32,0-10.11,2.79-2.79,7.32-2.79,10.11,0Z"/>
    <image width="3234" height="2232" transform="translate(374.58) scale(.24)" xlink:href="D:\Camila\Challenge\teste.png"/>
    <line class="cls-2" x1="547.94" y1="279.29" x2="547.94" y2="430.05"/>
  </g>
</svg>