<svg width="313" height="219" viewBox="0 0 313 219" fill="none" xmlns="http://www.w3.org/2000/svg">
<path d="M38.49 0H11.51C5.1532 0 0 5.15297 0 11.5098V38.4902C0 44.847 5.1532 50 11.51 50H38.49C44.8468 50 50 44.847 50 38.4902V11.5098C50 5.15297 44.8468 0 38.49 0Z" fill="white"/>
<path d="M126.49 0H99.51C93.1532 0 88 5.15297 88 11.5098V38.4902C88 44.847 93.1532 50 99.51 50H126.49C132.847 50 138 44.847 138 38.4902V11.5098C138 5.15297 132.847 0 126.49 0Z" fill="white"/>
<path d="M214.49 0H187.51C181.153 0 176 5.15297 176 11.5098V38.4902C176 44.847 181.153 50 187.51 50H214.49C220.847 50 226 44.847 226 38.4902V11.5098C226 5.15297 220.847 0 214.49 0Z" fill="white"/>
<path d="M301.49 0H274.51C268.153 0 263 5.15297 263 11.5098V38.4902C263 44.847 268.153 50 274.51 50H301.49C307.847 50 313 44.847 313 38.4902V11.5098C313 5.15297 307.847 0 301.49 0Z" fill="white"/>
<path d="M38.49 169H11.51C5.1532 169 0 174.153 0 180.51V207.49C0 213.847 5.1532 219 11.51 219H38.49C44.8468 219 50 213.847 50 207.49V180.51C50 174.153 44.8468 169 38.49 169Z" fill="white"/>
<path d="M126.49 169H99.51C93.1532 169 88 174.153 88 180.51V207.49C88 213.847 93.1532 219 99.51 219H126.49C132.847 219 138 213.847 138 207.49V180.51C138 174.153 132.847 169 126.49 169Z" fill="white"/>
<path d="M214.49 169H187.51C181.153 169 176 174.153 176 180.51V207.49C176 213.847 181.153 219 187.51 219H214.49C220.847 219 226 213.847 226 207.49V180.51C226 174.153 220.847 169 214.49 169Z" fill="white"/>
<path d="M301.49 169H274.51C268.153 169 263 174.153 263 180.51V207.49C263 213.847 268.153 219 274.51 219H301.49C307.847 219 313 213.847 313 207.49V180.51C313 174.153 307.847 169 301.49 169Z" fill="white"/>
</svg>
