<svg width="321" height="285" viewBox="0 0 321 285" fill="none" xmlns="http://www.w3.org/2000/svg">
<path d="M0.5 279C14.26 284.96 24.84 277.86 30.99 271.45C34.41 267.88 36.52 263.3 37.55 258.44C40.31 245.47 52.72 238.42 52.72 238.42C85.66 223 87.26 248.97 87.26 248.97C88.36 266.45 103.14 275.58 118.82 280.34C140.6 286.95 164.06 284.53 184.53 274.51C241.52 246.61 213.12 218.13 213.12 218.13C213.12 143.32 215.03 90.4399 215.03 90.4399C240.78 67.4399 255.96 90.4399 255.96 90.4399C205.35 121 152.33 80.9699 152.33 80.9699C148 112 169.2 133.37 169.2 133.37C128.23 116.78 125.82 129.64 125.82 129.64L126.62 169.44C90.47 191.35 126.62 220.57 126.62 220.57V244.1C156.34 266.82 217.4 264.39 217.4 264.39C251.94 264.39 302.55 244.1 302.55 244.1L303.35 219.75C337.09 188.91 302.55 165.14 302.55 165.14L301.75 124.8C297.73 118.31 263.19 133.36 263.19 133.36C284.08 107.03 274.44 57.6398 274.44 57.6398C252.54 5.08982 213.12 34.1698 213.12 34.1698C233.74 57.9698 296.34 40.3898 296.34 40.3898C260.4 63.1098 213.12 67.1698 213.12 67.1698C160.64 57.4298 126.62 34.1698 126.62 34.1698C155.54 7.65985 213.12 1.43986 213.12 1.43986C263.47 -2.62014 307.92 34.1698 307.92 34.1698C292.4 69.3398 307.88 80.9599 307.88 80.9599C321.24 96.3699 319.42 110.18 319.42 110.18C305.76 119.11 296.34 110.18 296.34 110.18C296.34 110.18 290.23 98.7298 310.59 104.14" stroke="black" stroke-width="1.03" stroke-miterlimit="10"/>
</svg>
