<svg width="375" height="185" viewBox="0 0 375 185" fill="none" xmlns="http://www.w3.org/2000/svg">
<path d="M1 171.05C106.28 177.91 281.83 191.65 261.58 113.2C261.58 113.2 248.25 45.5195 187.23 61.9295C187.23 61.9295 148.16 75.3297 148.95 112.58C149.34 130.8 175.78 132.68 178.71 114.69C178.76 114.36 178.82 114.02 178.87 113.68C180.99 98.8895 198.61 91.9595 209.74 101.93C212.52 104.42 215.46 107.66 218.53 111.82C219.47 113.09 221.05 113.84 222.6 113.51C224.7 113.07 226.79 110.85 224.89 102.77C223.7 97.7196 230.41 94.7896 233.38 99.0496C247.18 118.81 256.87 147.96 212.37 164.49C212.37 164.49 155.46 181.92 144.69 117.32C144.69 117.32 142.64 61.9497 133.41 68.0997C133.41 68.0997 80.09 60.9195 72.4 71.1795C72.4 71.1795 60.61 157.83 67.27 162.96C67.27 162.96 115.98 180.91 139.56 161.93C139.56 161.93 117.51 45.5396 150.33 63.9996C150.33 63.9996 153.3 63.6497 154.24 57.8597C156.14 46.2497 145.9 36.2297 134.25 37.8597C107.54 41.5997 59.11 47.1497 60.6 37.8497C60.6 37.8497 53.42 33.2396 111.87 25.0296C111.87 25.0296 121.1 8.10965 63.16 16.3097C63.16 16.3097 34.45 28.6197 163.65 27.5897C163.65 27.5897 176.81 4.33947 184.87 2.87947C186.32 2.61947 187.78 2.45967 189.21 2.07967C193.56 0.91967 204.35 -0.580349 227.23 2.80965C227.23 2.80965 248.94 22.1397 244.32 28.3197C244.32 28.3197 227.5 40.7396 195.7 35.5096C190.07 34.5796 190.29 26.4095 195.97 25.8995C206.95 24.9195 224.66 25.2997 253.09 29.5597C257.93 30.2797 262.46 27.2997 263.9 22.6197C264.55 20.5097 265.71 18.7397 267.74 18.3697L297.63 19.9395C303.19 20.2295 307.82 24.2896 308.85 29.7596C309.95 35.5996 311.01 43.4495 310.78 51.1795C310.47 61.2995 302.31 69.4197 292.19 69.5597C287.49 69.6297 282.21 69.6295 277.24 69.4495C272.18 69.2695 271.71 61.9097 276.72 61.1197C289.56 59.0997 305.7 58.1896 312.86 64.4996C312.86 64.4996 320.55 165.51 315.42 169.1C315.42 169.1 292.96 156.57 274.33 158.52C261.78 159.83 260.93 177.85 273.26 180.52C289.03 183.93 318.63 185.82 374.08 181.59" stroke="black" stroke-width="1.13" stroke-miterlimit="10"/>
</svg>
