<svg width="375" height="185" viewBox="0 0 375 185" fill="none" xmlns="http://www.w3.org/2000/svg">
<path d="M1 171.323C106.28 178.183 281.83 191.923 261.58 113.473C261.58 113.473 248.25 45.793 187.23 62.203C187.23 62.203 148.16 75.6031 148.95 112.853C149.34 131.073 175.78 132.953 178.71 114.963C178.76 114.633 178.82 114.293 178.87 113.953C180.99 99.163 198.61 92.233 209.74 102.203C212.52 104.693 215.46 107.933 218.53 112.093C219.47 113.363 221.05 114.113 222.6 113.783C224.7 113.343 226.79 111.123 224.89 103.043C223.7 97.9931 230.41 95.0631 233.38 99.3231C247.18 119.083 256.87 148.233 212.37 164.763C212.37 164.763 155.46 182.193 144.69 117.593C144.69 117.593 142.64 62.2231 133.41 68.3731C133.41 68.3731 80.09 61.193 72.4 71.453C72.4 71.453 60.61 158.103 67.27 163.233C67.27 163.233 115.98 181.183 139.56 162.203C139.56 162.203 117.51 45.813 150.33 64.273C150.33 64.273 153.3 63.9231 154.24 58.1331C156.14 46.5231 145.9 36.5031 134.25 38.1331C107.54 41.8731 59.11 47.4231 60.6 38.1231C60.6 38.1231 53.42 33.5131 111.87 25.3031C111.87 25.3031 121.1 8.38309 63.16 16.5831C63.16 16.5831 34.45 28.8931 163.65 27.8631C163.65 27.8631 176.81 4.61291 184.87 3.15291C186.32 2.89291 187.78 2.73311 189.21 2.35311C193.56 1.19311 204.35 -0.306912 227.23 3.08309C227.23 3.08309 248.94 22.4131 244.32 28.5931C244.32 28.5931 227.5 41.013 195.7 35.783C190.07 34.853 190.29 26.6829 195.97 26.1729C206.95 25.1929 224.66 25.5731 253.09 29.8331C257.93 30.5531 262.46 27.5731 263.9 22.8931C264.55 20.7831 265.71 19.0131 267.74 18.6431L297.63 20.213C303.19 20.503 307.82 24.563 308.85 30.033C309.95 35.873 311.01 43.723 310.78 51.453C310.47 61.573 302.31 69.6931 292.19 69.8331C287.49 69.9031 282.21 69.903 277.24 69.723C272.18 69.543 271.71 62.1831 276.72 61.3931C289.56 59.3731 305.7 58.463 312.86 64.773C312.86 64.773 320.55 165.783 315.42 169.373C315.42 169.373 292.96 156.843 274.33 158.793C261.78 160.103 260.93 178.123 273.26 180.793C289.03 184.203 318.63 186.093 374.08 181.863" stroke="black" stroke-width="1.13" stroke-miterlimit="10"/>
</svg>
