<svg width="333" height="202" viewBox="0 0 333 202" fill="none" xmlns="http://www.w3.org/2000/svg">
<path d="M0.179932 194.9C16.3399 185.85 36.0499 185.68 54.3199 188.75C72.5799 191.83 90.2699 197.87 108.6 200.52C120.16 202.19 132.84 202.23 142.45 195.58C144.76 193.98 146.92 191.99 149.64 191.32C151.77 190.79 154.01 191.14 156.18 191.46C174.37 194.09 192.93 194.11 211.12 191.49C216.36 190.74 221.94 189.57 225.59 185.73C229.24 181.89 229.47 174.52 224.79 172.04C222.05 170.59 218.73 171.24 215.68 171.8C202.02 174.31 187.88 174.23 174.25 171.59C170.22 175.13 171.68 182.24 175.82 185.64C179.96 189.05 185.68 189.68 191.04 189.86C212.15 190.56 233.69 186.23 251.89 175.52C253.94 174.31 255.99 172.98 257.34 171.02C258.68 169.07 259.2 166.68 259.64 164.35C263.61 143.36 264.01 121.7 260.84 100.57C260.53 98.5003 260.12 96.3003 258.71 94.7603C257.16 93.0703 254.74 92.5303 252.48 92.1203C212.64 84.8903 171.7 89.4003 131.47 94.0303C123.26 118.04 123.34 144.8 131.68 168.77C164.03 170.23 196.46 169.87 228.76 167.67C239.9 166.91 251.07 165.93 261.94 163.36C265.82 162.44 269.91 161.16 272.42 158.06C273.36 156.9 274.03 155.54 274.63 154.17C281.24 139.27 281.79 121.78 276.15 106.49C272.46 106.35 268.77 106.21 265.08 106.07C268.07 120.23 268.04 135.02 264.99 149.17C272.11 152.4 280.96 151.32 287.18 146.57C293.4 141.83 296.78 133.66 295.87 125.89C295.1 119.33 288.97 112.29 282.88 114.84C290.59 121.31 291.39 134.41 284.54 141.78C300.37 147.55 316.19 153.32 332.02 159.09C332.02 139.74 332.02 120.39 332.02 101.04C320.77 105.32 309.53 109.61 298.28 113.89C298.22 119.86 299.45 125.85 301.86 131.31C303.48 135 308.44 138.77 310.88 135.55C302.23 119.82 293.57 104.09 284.92 88.3603C271.25 90.3603 257.38 92.3703 243.66 90.7003C229.94 89.0403 216.15 83.2303 207.77 72.2503C203.33 66.4403 200.59 59.4003 199.65 52.1503C197.9 38.6303 202.67 24.4204 212.21 14.6804C221.75 4.95036 235.87 -0.0996886 249.42 1.38031C260.38 2.57031 270.93 8.02033 277.78 16.6503C283.84 24.2803 286.84 33.9803 287.85 43.6703C288.93 53.9503 287.74 64.8703 282.06 73.5003C274.42 85.0903 260.67 86.5803 247.88 85.2803C243.4 84.8203 238.82 83.3703 235.69 80.1303C230.78 75.0203 228.41 64.0103 228.4 57.0403C228.4 47.9503 233.78 41.9802 242.86 40.9402C242.86 40.9402 257.5 43.3704 255.88 55.4304C255.88 55.4304 258.03 67.1203 166.1 86.7703C146.81 90.8903 124.64 87.2503 112.87 69.9003C106.83 61.0003 105.58 52.8802 106.89 42.4402C108.1 32.7802 111.4 23.1304 117.83 15.6804C137.13 -6.68964 181.13 -2.06975 191.68 27.1902C194.1 33.9102 194.12 41.2402 192.79 48.1902C192.79 48.1902 186.81 81.2404 150.02 75.8104C146.45 75.2804 142.21 70.4003 140.29 67.7603C134.37 59.6103 133.59 46.5003 140.97 38.9503C145.42 34.4003 153.32 32.6303 159.38 34.3203C165.44 36.0103 167.38 40.7602 168.46 46.4402C171.03 59.9402 165.14 71.5204 151.82 76.0504" stroke="black" stroke-width="0.75" stroke-miterlimit="10"/>
</svg>
