<svg width="300" height="202" viewBox="0 0 300 202" fill="none" xmlns="http://www.w3.org/2000/svg">
<path d="M-32.82 194.9C-16.66 185.85 3.04999 185.68 21.32 188.75C39.58 191.83 57.27 197.87 75.6 200.52C87.16 202.19 99.84 202.23 109.45 195.58C111.76 193.98 113.92 191.99 116.64 191.32C118.77 190.79 121.01 191.14 123.18 191.46C141.37 194.09 159.93 194.11 178.12 191.49C183.36 190.74 188.94 189.57 192.59 185.73C196.24 181.89 196.47 174.52 191.79 172.04C189.05 170.59 185.73 171.24 182.68 171.8C169.02 174.31 154.88 174.23 141.25 171.59C137.22 175.13 138.68 182.24 142.82 185.64C146.96 189.05 152.68 189.68 158.04 189.86C179.15 190.56 200.69 186.23 218.89 175.52C220.94 174.31 222.99 172.98 224.34 171.02C225.68 169.07 226.2 166.68 226.64 164.35C230.61 143.36 231.01 121.7 227.84 100.57C227.53 98.5003 227.12 96.3003 225.71 94.7603C224.16 93.0703 221.74 92.5303 219.48 92.1203C179.64 84.8903 138.7 89.4003 98.47 94.0303C90.26 118.04 90.34 144.8 98.68 168.77C131.03 170.23 163.46 169.87 195.76 167.67C206.9 166.91 218.07 165.93 228.94 163.36C232.82 162.44 236.91 161.16 239.42 158.06C240.36 156.9 241.03 155.54 241.63 154.17C248.24 139.27 248.79 121.78 243.15 106.49C239.46 106.35 235.77 106.21 232.08 106.07C235.07 120.23 235.04 135.02 231.99 149.17C239.11 152.4 247.96 151.32 254.18 146.57C260.4 141.83 263.78 133.66 262.87 125.89C262.1 119.33 255.97 112.29 249.88 114.84C257.59 121.31 258.39 134.41 251.54 141.78C267.37 147.55 283.19 153.32 299.02 159.09C299.02 139.74 299.02 120.39 299.02 101.04C287.77 105.32 276.53 109.61 265.28 113.89C265.22 119.86 266.45 125.85 268.86 131.31C270.48 135 275.44 138.77 277.88 135.55C269.23 119.82 260.57 104.09 251.92 88.3603C238.25 90.3603 224.38 92.3703 210.66 90.7003C196.94 89.0403 183.15 83.2303 174.77 72.2503C170.33 66.4403 167.59 59.4003 166.65 52.1503C164.9 38.6303 169.67 24.4204 179.21 14.6804C188.75 4.95036 202.87 -0.0996886 216.42 1.38031C227.38 2.57031 237.93 8.02033 244.78 16.6503C250.84 24.2803 253.84 33.9803 254.85 43.6703C255.93 53.9503 254.74 64.8703 249.06 73.5003C241.42 85.0903 227.67 86.5803 214.88 85.2803C210.4 84.8203 205.82 83.3703 202.69 80.1303C197.78 75.0203 195.41 64.0103 195.4 57.0403C195.4 47.9503 200.78 41.9802 209.86 40.9402C209.86 40.9402 224.5 43.3704 222.88 55.4304C222.88 55.4304 225.03 67.1203 133.1 86.7703C113.81 90.8903 91.64 87.2503 79.87 69.9003C73.83 61.0003 72.58 52.8802 73.89 42.4402C75.1 32.7802 78.4 23.1304 84.83 15.6804C104.13 -6.68964 148.13 -2.06975 158.68 27.1902C161.1 33.9102 161.12 41.2402 159.79 48.1902C159.79 48.1902 153.81 81.2404 117.02 75.8104C113.45 75.2804 109.21 70.4003 107.29 67.7603C101.37 59.6103 100.59 46.5003 107.97 38.9503C112.42 34.4003 120.32 32.6303 126.38 34.3203C132.44 36.0103 134.38 40.7602 135.46 46.4402C138.03 59.9402 132.14 71.5204 118.82 76.0504" stroke="black" stroke-width="0.75" stroke-miterlimit="10"/>
</svg>
