<svg width="273" height="272" viewBox="0 0 273 272" fill="none" xmlns="http://www.w3.org/2000/svg">
<path d="M70.68 2.22974C75.1 1.51974 79.64 1.13965 84.26 1.13965C130.94 1.13965 168.78 38.9797 168.78 85.6597C168.78 103.93 162.98 120.85 153.12 134.68" stroke="black" stroke-width="1.36" stroke-miterlimit="10"/>
<path d="M15.41 134.679C8.62997 125.169 3.76001 114.19 1.39001 102.31" stroke="black" stroke-width="1.36" stroke-miterlimit="10"/>
<path d="M15.41 134.68L82.32 236.32L153.12 134.68" stroke="black" stroke-width="1.36" stroke-miterlimit="10"/>
<path d="M82.32 236.32C82.32 236.32 57.93 234.1 42.41 224.47C33.77 219.11 22.6301 220.48 20.0901 230.32C18.6601 235.88 20.76 241.47 23.76 246.1C26.95 251.01 32.87 255.5 37.98 258.49C41.13 260.34 42.88 261.699 46.35 262.879C53.04 265.149 59.94 266.849 66.93 267.889C85.92 270.719 105.64 268.43 122.67 259.21C129.46 255.53 135.67 250.88 141.22 245.53C145.91 241.01 143.3 232.9 136.83 232.23C132.88 231.82 125.21 231.91 116.87 235.4C111.86 237.49 106.52 239.83 100.98 244.27C100.98 244.27 79.14 259.41 106.93 263C120.39 264.74 134.02 261.84 145.82 255.15C164.87 244.36 197.68 228.9 207.2 244.08C207.2 244.08 225.3 285.089 271.86 265.879" stroke="black" stroke-width="1.36" stroke-miterlimit="10"/>
<path d="M1.38999 102.32C-0.630007 88.5803 23.13 50.3402 84.26 51.6902C84.6 51.6902 84.94 51.7403 85.28 51.7703C117.98 54.9103 131.1 80.2003 127.4 101.27C127.4 101.27 122.97 134.9 84.26 137.12C84.26 137.12 53.32 140.08 42.23 105.71C42.23 105.71 14.52 17.9602 70.68 2.24023" stroke="black" stroke-width="1.36" stroke-miterlimit="10"/>
</svg>
