<svg width="1360" height="896" viewBox="0 0 1360 896" fill="none" xmlns="http://www.w3.org/2000/svg">
<g clip-path="url(#clip0_142_11)">
<path d="M-29.3857 4.18945C4.35595 2.91193 108.254 88.7658 142.018 148.486C220.615 287.502 177.021 351.54 149.111 365.202C88.1883 395.025 58.558 361.971 44.6702 328.831C30.7824 295.691 54.3559 250.256 86.2158 252.001C111.704 253.398 125.902 262.178 132.251 278.864C141.421 302.967 130.951 315.28 125.744 321.499M125.744 321.499C119.477 328.984 111.449 335.583 102.701 336.421C82.6809 338.339 74.0384 332.059 72.827 316.361C71.6156 300.664 76.8862 289.675 92.9598 286.537C109.033 283.398 123.696 301.518 125.744 321.499Z" stroke="#AE24FF"/>
<path d="M125.5 319.5C158.5 444.5 114 637.5 330.5 603C475.669 579.867 531.492 711.145 660.5 741.5C788 771.5 980.13 666.057 1012 653.5C1396.5 502 1289.5 1008.5 1423 912.5M1237 2023C1263.67 2051.67 1324.2 2149.8 1313 2193C1295.37 2261 1249 2285 1171 2353" stroke="#AE24FF"/>
</g>
<defs>
<clipPath id="clip0_142_11">
<rect width="1360" height="896" fill="white"/>
</clipPath>
</defs>
</svg>
