<svg width="193" height="60" viewBox="0 0 193 60" fill="none" xmlns="http://www.w3.org/2000/svg">
<path d="M55.61 29.8404V56.0704C55.61 56.9904 54.87 57.7204 53.96 57.7204H28.77C13.94 57.7204 1.92999 45.2304 1.92999 29.8304C1.92999 14.4304 13.94 1.94043 28.77 1.94043C43.6 1.94043 54.89 13.6904 55.58 28.4504C55.58 28.4504 55.58 28.4504 55.58 28.4604C55.61 28.9104 55.62 29.3704 55.62 29.8304L55.61 29.8404Z" stroke="#1D1D1B" stroke-width="3" stroke-miterlimit="10"/>
<path d="M28.96 8.69043C17.28 8.69043 7.81 18.1604 7.81 29.8404C7.81 41.5204 17.28 50.9904 28.96 50.9904C40.64 50.9904 50.11 41.5204 50.11 29.8404C50.11 18.1604 40.64 8.69043 28.96 8.69043ZM13.33 27.0604C13.33 24.6804 15.26 22.7604 17.63 22.7604C20 22.7604 21.93 24.6904 21.93 27.0604C21.93 29.4304 20 31.3604 17.63 31.3604C15.26 31.3604 13.33 29.4304 13.33 27.0604ZM21.93 43.5804C19.55 43.5804 17.63 41.6504 17.63 39.2804C17.63 36.9104 19.56 34.9804 21.93 34.9804C24.3 34.9804 26.23 36.9104 26.23 39.2804C26.23 41.6504 24.3 43.5804 21.93 43.5804ZM25.02 18.4604C25.02 16.0804 26.95 14.1604 29.32 14.1604C31.69 14.1604 33.62 16.0904 33.62 18.4604C33.62 20.8304 31.69 22.7604 29.32 22.7604C26.95 22.7604 25.02 20.8304 25.02 18.4604ZM29.32 32.5204C28.13 32.5204 27.17 31.5604 27.17 30.3704C27.17 29.1804 28.13 28.2204 29.32 28.2204C30.51 28.2204 31.47 29.1804 31.47 30.3704C31.47 31.5604 30.51 32.5204 29.32 32.5204ZM35.97 43.5804C33.59 43.5804 31.67 41.6504 31.67 39.2804C31.67 36.9104 33.6 34.9804 35.97 34.9804C38.34 34.9804 40.27 36.9104 40.27 39.2804C40.27 41.6504 38.34 43.5804 35.97 43.5804ZM40.27 31.3704C37.89 31.3704 35.97 29.4404 35.97 27.0704C35.97 24.7004 37.9 22.7704 40.27 22.7704C42.64 22.7704 44.57 24.7004 44.57 27.0704C44.57 29.4404 42.64 31.3704 40.27 31.3704Z" fill="#1D1D1B"/>
<path d="M63.7871 51.9805V36.8096H68.9132C70.1034 36.8096 71.0763 37.0244 71.8318 37.454C72.5924 37.8787 73.1553 38.4541 73.5208 39.18C73.8862 39.906 74.069 40.7159 74.069 41.6097C74.069 42.5036 73.8862 43.316 73.5208 44.0469C73.1603 44.7777 72.6022 45.3605 71.8467 45.7951C71.0911 46.2247 70.1231 46.4395 68.9429 46.4395H65.2686V44.8098H68.8836C69.6984 44.8098 70.3528 44.6691 70.8466 44.3876C71.3405 44.1061 71.6985 43.7259 71.9207 43.2468C72.1479 42.7629 72.2615 42.2172 72.2615 41.6097C72.2615 41.0023 72.1479 40.4591 71.9207 39.98C71.6985 39.501 71.338 39.1257 70.8392 38.8541C70.3404 38.5775 69.6787 38.4392 68.854 38.4392H65.6242V51.9805H63.7871ZM89.8288 44.395C89.8288 45.9951 89.5399 47.3778 88.9621 48.5433C88.3843 49.7088 87.5917 50.6076 86.5842 51.2397C85.5768 51.8718 84.4261 52.1879 83.1322 52.1879C81.8384 52.1879 80.6877 51.8718 79.6803 51.2397C78.6728 50.6076 77.8802 49.7088 77.3024 48.5433C76.7246 47.3778 76.4357 45.9951 76.4357 44.395C76.4357 42.795 76.7246 41.4122 77.3024 40.2467C77.8802 39.0812 78.6728 38.1824 79.6803 37.5503C80.6877 36.9182 81.8384 36.6021 83.1322 36.6021C84.4261 36.6021 85.5768 36.9182 86.5842 37.5503C87.5917 38.1824 88.3843 39.0812 88.9621 40.2467C89.5399 41.4122 89.8288 42.795 89.8288 44.395ZM88.0509 44.395C88.0509 43.0814 87.8312 41.9727 87.3917 41.069C86.9571 40.1652 86.3669 39.4813 85.6212 39.017C84.8805 38.5528 84.0508 38.3207 83.1322 38.3207C82.2137 38.3207 81.3816 38.5528 80.6359 39.017C79.8951 39.4813 79.3049 40.1652 78.8654 41.069C78.4308 41.9727 78.2136 43.0814 78.2136 44.395C78.2136 45.7086 78.4308 46.8173 78.8654 47.7211C79.3049 48.6248 79.8951 49.3088 80.6359 49.773C81.3816 50.2372 82.2137 50.4693 83.1322 50.4693C84.0508 50.4693 84.8805 50.2372 85.6212 49.773C86.3669 49.3088 86.9571 48.6248 87.3917 47.7211C87.8312 46.8173 88.0509 45.7086 88.0509 44.395ZM104.948 36.8096V51.9805H103.17L94.903 40.0689H94.7549V51.9805H92.9178V36.8096H94.6956L102.992 48.7507H103.14V36.8096H104.948ZM107.794 38.4392V36.8096H119.172V38.4392H114.402V51.9805H112.565V38.4392H107.794ZM134.177 44.395C134.177 45.9951 133.888 47.3778 133.31 48.5433C132.732 49.7088 131.94 50.6076 130.932 51.2397C129.925 51.8718 128.774 52.1879 127.48 52.1879C126.186 52.1879 125.036 51.8718 124.028 51.2397C123.021 50.6076 122.228 49.7088 121.65 48.5433C121.072 47.3778 120.784 45.9951 120.784 44.395C120.784 42.795 121.072 41.4122 121.65 40.2467C122.228 39.0812 123.021 38.1824 124.028 37.5503C125.036 36.9182 126.186 36.6021 127.48 36.6021C128.774 36.6021 129.925 36.9182 130.932 37.5503C131.94 38.1824 132.732 39.0812 133.31 40.2467C133.888 41.4122 134.177 42.795 134.177 44.395ZM132.399 44.395C132.399 43.0814 132.179 41.9727 131.74 41.069C131.305 40.1652 130.715 39.4813 129.969 39.017C129.228 38.5528 128.399 38.3207 127.48 38.3207C126.562 38.3207 125.729 38.5528 124.984 39.017C124.243 39.4813 123.653 40.1652 123.213 41.069C122.779 41.9727 122.561 43.0814 122.561 44.395C122.561 45.7086 122.779 46.8173 123.213 47.7211C123.653 48.6248 124.243 49.3088 124.984 49.773C125.729 50.2372 126.562 50.4693 127.48 50.4693C128.399 50.4693 129.228 50.2372 129.969 49.773C130.715 49.3088 131.305 48.6248 131.74 47.7211C132.179 46.8173 132.399 45.7086 132.399 44.395ZM145.562 40.6023C145.473 39.8516 145.113 39.2689 144.481 38.8541C143.849 38.4392 143.073 38.2318 142.155 38.2318C141.483 38.2318 140.895 38.3405 140.392 38.5578C139.893 38.7751 139.503 39.0738 139.221 39.4541C138.945 39.8344 138.806 40.2665 138.806 40.7504C138.806 41.1554 138.903 41.5036 139.095 41.7949C139.293 42.0814 139.545 42.3209 139.851 42.5135C140.157 42.7011 140.478 42.8567 140.814 42.9801C141.15 43.0987 141.458 43.195 141.74 43.269L143.281 43.6839C143.676 43.7876 144.115 43.9308 144.599 44.1135C145.088 44.2962 145.555 44.5456 145.999 44.8617C146.449 45.1728 146.819 45.5728 147.11 46.0617C147.402 46.5506 147.548 47.1507 147.548 47.8618C147.548 48.6816 147.333 49.4224 146.903 50.0841C146.478 50.7459 145.856 51.2718 145.036 51.6619C144.221 52.0521 143.231 52.2471 142.066 52.2471C140.979 52.2471 140.039 52.0718 139.244 51.7212C138.453 51.3706 137.831 50.8817 137.377 50.2545C136.927 49.6273 136.673 48.8989 136.614 48.0692H138.51C138.56 48.6421 138.752 49.1162 139.088 49.4915C139.429 49.8619 139.858 50.1384 140.377 50.3212C140.9 50.4989 141.463 50.5878 142.066 50.5878C142.767 50.5878 143.397 50.4742 143.955 50.2471C144.513 50.015 144.955 49.694 145.281 49.2841C145.607 48.8692 145.77 48.3853 145.77 47.8322C145.77 47.3285 145.629 46.9186 145.347 46.6025C145.066 46.2864 144.696 46.0296 144.236 45.8321C143.777 45.6346 143.281 45.4617 142.747 45.3136L140.881 44.7802C139.695 44.4395 138.757 43.953 138.066 43.3209C137.374 42.6888 137.029 41.8616 137.029 40.8393C137.029 39.9899 137.258 39.2492 137.718 38.617C138.182 37.98 138.804 37.4861 139.584 37.1355C140.369 36.7799 141.246 36.6021 142.214 36.6021C143.192 36.6021 144.061 36.7775 144.821 37.1281C145.582 37.4738 146.184 37.9479 146.629 38.5504C147.078 39.1529 147.315 39.8368 147.34 40.6023H145.562ZM156.435 36.8096H158.628L163.783 49.4026H163.961L169.117 36.8096H171.309V51.9805H169.591V40.4541H169.443L164.702 51.9805H163.042L158.302 40.4541H158.153V51.9805H156.435V36.8096ZM176.83 36.8096V51.9805H174.993V36.8096H176.83ZM188.81 40.6023C188.721 39.8516 188.361 39.2689 187.729 38.8541C187.096 38.4392 186.321 38.2318 185.403 38.2318C184.731 38.2318 184.143 38.3405 183.64 38.5578C183.141 38.7751 182.751 39.0738 182.469 39.4541C182.193 39.8344 182.054 40.2665 182.054 40.7504C182.054 41.1554 182.151 41.5036 182.343 41.7949C182.541 42.0814 182.793 42.3209 183.099 42.5135C183.405 42.7011 183.726 42.8567 184.062 42.9801C184.398 43.0987 184.706 43.195 184.988 43.269L186.529 43.6839C186.924 43.7876 187.363 43.9308 187.847 44.1135C188.336 44.2962 188.803 44.5456 189.247 44.8617C189.697 45.1728 190.067 45.5728 190.358 46.0617C190.65 46.5506 190.795 47.1507 190.795 47.8618C190.795 48.6816 190.581 49.4224 190.151 50.0841C189.726 50.7459 189.104 51.2718 188.284 51.6619C187.469 52.0521 186.479 52.2471 185.314 52.2471C184.227 52.2471 183.286 52.0718 182.491 51.7212C181.701 51.3706 181.079 50.8817 180.625 50.2545C180.175 49.6273 179.921 48.8989 179.862 48.0692H181.758C181.807 48.6421 182 49.1162 182.336 49.4915C182.677 49.8619 183.106 50.1384 183.625 50.3212C184.148 50.4989 184.711 50.5878 185.314 50.5878C186.015 50.5878 186.645 50.4742 187.203 50.2471C187.761 50.015 188.203 49.694 188.529 49.2841C188.855 48.8692 189.017 48.3853 189.017 47.8322C189.017 47.3285 188.877 46.9186 188.595 46.6025C188.314 46.2864 187.943 46.0296 187.484 45.8321C187.025 45.6346 186.529 45.4617 185.995 45.3136L184.128 44.7802C182.943 44.4395 182.005 43.953 181.314 43.3209C180.622 42.6888 180.276 41.8616 180.276 40.8393C180.276 39.9899 180.506 39.2492 180.965 38.617C181.43 37.98 182.052 37.4861 182.832 37.1355C183.617 36.7799 184.494 36.6021 185.462 36.6021C186.44 36.6021 187.309 36.7775 188.069 37.1281C188.83 37.4738 189.432 37.9479 189.877 38.5504C190.326 39.1529 190.563 39.8368 190.588 40.6023H188.81Z" fill="#1D1D1B"/>
<path d="M50.46 57.7305H188.1" stroke="#1D1D1B" stroke-width="3" stroke-miterlimit="10"/>
<path d="M187.8 58.0204C187.96 58.0204 188.09 57.8906 188.09 57.7304C188.09 57.5703 187.96 57.4404 187.8 57.4404C187.64 57.4404 187.51 57.5703 187.51 57.7304C187.51 57.8906 187.64 58.0204 187.8 58.0204Z" fill="#1D1D1B" stroke="#1D1D1B" stroke-width="2" stroke-miterlimit="10"/>
</svg>
