<svg width="507" height="152" viewBox="0 0 507 152" fill="none" xmlns="http://www.w3.org/2000/svg">
<path d="M143.838 76.166V144.989C143.838 147.391 141.897 149.332 139.495 149.332H73.4025C34.5166 149.332 3 116.582 3 76.166C3 35.7503 34.5166 3 73.4025 3C112.288 3 141.93 33.8257 143.739 72.5306C143.756 72.5306 143.756 72.5471 143.739 72.5636C143.822 73.7479 143.838 74.9487 143.838 76.1495V76.166Z" stroke="#1D1D1B" stroke-width="4.78" stroke-miterlimit="10"/>
<path d="M73.9289 20.666C43.2841 20.666 18.4294 45.5043 18.4294 76.1656C18.4294 106.827 43.2676 131.665 73.9289 131.665C104.59 131.665 129.428 106.827 129.428 76.1656C129.428 45.5043 104.59 20.666 73.9289 20.666ZM32.9376 68.8621C32.9376 62.6279 37.9875 57.578 44.2217 57.578C50.4559 57.578 55.5058 62.6279 55.5058 68.8621C55.5058 75.0964 50.4559 80.1462 44.2217 80.1462C37.9875 80.1462 32.9376 75.0964 32.9376 68.8621ZM55.5058 112.189C49.2716 112.189 44.2217 107.139 44.2217 100.905C44.2217 94.6709 49.2716 89.621 55.5058 89.621C61.7401 89.621 66.7899 94.6709 66.7899 100.905C66.7899 107.139 61.7401 112.189 55.5058 112.189ZM63.6153 46.2774C63.6153 40.0432 68.6652 34.9933 74.8995 34.9933C81.1337 34.9933 86.1836 40.0432 86.1836 46.2774C86.1836 52.5117 81.1337 57.5615 74.8995 57.5615C68.6652 57.5615 63.6153 52.5117 63.6153 46.2774ZM74.8995 83.1565C71.7906 83.1565 69.2573 80.6233 69.2573 77.5144C69.2573 74.4055 71.7906 71.8723 74.8995 71.8723C78.0084 71.8723 80.5415 74.4055 80.5415 77.5144C80.5415 80.6233 78.0084 83.1565 74.8995 83.1565ZM92.3356 112.189C86.1013 112.189 81.0515 107.139 81.0515 100.905C81.0515 94.6709 86.1013 89.621 92.3356 89.621C98.5698 89.621 103.62 94.6709 103.62 100.905C103.62 107.139 98.5698 112.189 92.3356 112.189ZM103.62 80.1462C97.3855 80.1462 92.3356 75.0964 92.3356 68.8621C92.3356 62.6279 97.3855 57.578 103.62 57.578C109.854 57.578 114.904 62.6279 114.904 68.8621C114.904 75.0964 109.854 80.1462 103.62 80.1462Z" fill="#1D1D1B"/>
<path d="M173.36 119.356H180.901C182.993 119.356 184.777 118.618 186.254 117.142C187.713 115.683 188.442 113.907 188.442 111.815C188.442 109.724 187.713 107.939 186.254 106.463C184.777 104.986 182.993 104.248 180.901 104.248C178.81 104.248 177.025 104.986 175.549 106.463C174.09 107.939 173.36 109.724 173.36 111.815V119.356ZM173.36 125.816V135.81C173.36 136.706 173.044 137.453 172.411 138.051C171.778 138.684 171.031 139 170.17 139H170.091C169.229 139 168.482 138.684 167.85 138.051C167.217 137.453 166.9 136.706 166.9 135.81V111.815C166.9 107.948 168.271 104.644 171.014 101.901C173.756 99.1768 177.052 97.8145 180.901 97.8145C184.769 97.8145 188.064 99.1768 190.789 101.901C193.531 104.644 194.902 107.948 194.902 111.815C194.902 115.665 193.531 118.961 190.789 121.703C188.064 124.445 184.769 125.816 180.901 125.816H173.36ZM219.45 97.8145C225.128 97.8145 229.988 99.8271 234.031 103.853C238.057 107.878 240.069 112.729 240.069 118.407C240.069 124.085 238.057 128.937 234.031 132.962C229.988 136.987 225.128 139 219.45 139C213.772 139 208.921 136.987 204.896 132.962C200.87 128.937 198.857 124.085 198.857 118.407C198.857 112.729 200.87 107.878 204.896 103.853C208.921 99.8271 213.772 97.8145 219.45 97.8145ZM219.45 104.248C215.548 104.248 212.217 105.628 209.457 108.388C206.697 111.147 205.317 114.487 205.317 118.407C205.317 122.327 206.697 125.667 209.457 128.427C212.217 131.169 215.548 132.54 219.45 132.54C223.37 132.54 226.71 131.169 229.47 128.427C232.229 125.667 233.609 122.327 233.609 118.407C233.609 114.487 232.229 111.147 229.47 108.388C226.71 105.628 223.37 104.248 219.45 104.248ZM272.396 135.81C272.396 136.706 272.079 137.453 271.446 138.051C270.813 138.684 270.066 139 269.205 139H269.126C268.265 139 267.518 138.684 266.885 138.051C266.252 137.453 265.936 136.706 265.936 135.81V111.446C265.936 109.46 265.241 107.764 263.853 106.357C262.446 104.951 260.741 104.248 258.737 104.248C256.751 104.248 255.055 104.951 253.648 106.357C252.26 107.764 251.565 109.46 251.565 111.446V135.81C251.565 136.706 251.249 137.453 250.616 138.051C249.983 138.684 249.236 139 248.375 139H248.296C247.435 139 246.688 138.684 246.055 138.051C245.422 137.453 245.105 136.706 245.105 135.81V111.446C245.105 107.685 246.441 104.468 249.113 101.796C251.785 99.1416 254.993 97.8145 258.737 97.8145C262.499 97.8145 265.716 99.1416 268.388 101.796C271.06 104.468 272.396 107.685 272.396 111.446V135.81ZM302.059 101.058C302.059 101.937 301.742 102.692 301.109 103.325C300.494 103.94 299.747 104.248 298.868 104.248H292.435V135.81C292.435 136.688 292.127 137.436 291.512 138.051C290.879 138.684 290.123 139 289.244 139H289.191C288.312 139 287.557 138.684 286.924 138.051C286.309 137.436 286.001 136.688 286.001 135.81V104.248H279.567C278.706 104.248 277.959 103.94 277.326 103.325C276.693 102.692 276.377 101.937 276.377 101.058V101.005C276.377 100.126 276.693 99.3701 277.326 98.7373C277.959 98.1221 278.706 97.8145 279.567 97.8145H298.868C299.747 97.8145 300.494 98.1221 301.109 98.7373C301.742 99.3701 302.059 100.126 302.059 101.005V101.058ZM325.815 97.8145C331.493 97.8145 336.354 99.8271 340.396 103.853C344.422 107.878 346.435 112.729 346.435 118.407C346.435 124.085 344.422 128.937 340.396 132.962C336.354 136.987 331.493 139 325.815 139C320.138 139 315.286 136.987 311.261 132.962C307.235 128.937 305.223 124.085 305.223 118.407C305.223 112.729 307.235 107.878 311.261 103.853C315.286 99.8271 320.138 97.8145 325.815 97.8145ZM325.815 104.248C321.913 104.248 318.582 105.628 315.822 108.388C313.062 111.147 311.683 114.487 311.683 118.407C311.683 122.327 313.062 125.667 315.822 128.427C318.582 131.169 321.913 132.54 325.815 132.54C329.735 132.54 333.075 131.169 335.835 128.427C338.595 125.667 339.975 122.327 339.975 118.407C339.975 114.487 338.595 111.147 335.835 108.388C333.075 105.628 329.735 104.248 325.815 104.248ZM362.545 104.195C361.033 104.195 359.75 104.723 358.695 105.777C357.641 106.832 357.113 108.115 357.113 109.627C357.113 111.42 357.931 112.782 359.565 113.714C360.286 114.118 362.404 114.83 365.92 115.85C368.926 116.746 371.123 117.827 372.512 119.093C374.586 120.974 375.623 123.619 375.623 127.029C375.623 130.334 374.445 133.155 372.09 135.493C369.752 137.831 366.939 139 363.652 139H353.606C352.745 139 351.998 138.684 351.365 138.051C350.732 137.418 350.416 136.671 350.416 135.81V135.651C350.416 134.79 350.732 134.043 351.365 133.41C351.998 132.777 352.745 132.461 353.606 132.461H363.916C365.41 132.461 366.693 131.934 367.766 130.879C368.82 129.824 369.348 128.541 369.348 127.029C369.348 125.271 368.53 123.9 366.896 122.916C366.122 122.459 363.995 121.686 360.515 120.596C357.509 119.611 355.32 118.495 353.949 117.247C351.875 115.384 350.838 112.844 350.838 109.627C350.838 106.322 352.007 103.501 354.345 101.163C356.683 98.8252 359.504 97.6562 362.809 97.6562H369.901C370.78 97.6562 371.536 97.9727 372.169 98.6055C372.784 99.2207 373.092 99.9678 373.092 100.847V101.005C373.092 101.866 372.784 102.613 372.169 103.246C371.536 103.879 370.78 104.195 369.901 104.195H362.545ZM402.966 135.81C402.966 136.706 402.649 137.453 402.017 138.051C401.384 138.684 400.637 139 399.775 139H399.696C398.835 139 398.088 138.684 397.455 138.051C396.822 137.453 396.506 136.706 396.506 135.81V110.497C396.506 106.999 397.745 104.011 400.224 101.532C402.702 99.0537 405.69 97.8145 409.188 97.8145C413.372 97.8145 416.527 99.2031 418.654 101.98C420.764 99.2031 423.91 97.8145 428.094 97.8145C431.592 97.8145 434.58 99.0537 437.059 101.532C439.537 104.011 440.776 106.999 440.776 110.497V135.81C440.776 136.688 440.469 137.436 439.854 138.051C439.221 138.684 438.465 139 437.586 139H437.533C436.637 139 435.89 138.684 435.292 138.051C434.659 137.453 434.343 136.706 434.343 135.81V110.497C434.343 108.757 433.736 107.28 432.523 106.067C431.311 104.854 429.834 104.248 428.094 104.248C426.371 104.248 424.903 104.854 423.69 106.067C422.478 107.28 421.871 108.757 421.871 110.497V135.81C421.871 136.706 421.555 137.453 420.922 138.051C420.324 138.684 419.577 139 418.681 139H418.628C417.749 139 416.993 138.684 416.36 138.051C415.728 137.453 415.411 136.706 415.411 135.81V110.497C415.411 108.757 414.805 107.28 413.592 106.067C412.379 104.854 410.911 104.248 409.188 104.248C407.466 104.248 405.998 104.854 404.785 106.067C403.572 107.28 402.966 108.757 402.966 110.497V135.81ZM450.664 97.8145C451.525 97.8145 452.272 98.1221 452.905 98.7373C453.538 99.3701 453.854 100.126 453.854 101.005V135.81C453.854 136.706 453.538 137.453 452.905 138.051C452.272 138.684 451.525 139 450.664 139H450.585C449.724 139 448.977 138.684 448.344 138.051C447.711 137.453 447.395 136.706 447.395 135.81V101.005C447.395 100.126 447.711 99.3701 448.344 98.7373C448.977 98.1221 449.724 97.8145 450.585 97.8145H450.664ZM471.547 104.195C470.035 104.195 468.752 104.723 467.697 105.777C466.643 106.832 466.115 108.115 466.115 109.627C466.115 111.42 466.933 112.782 468.567 113.714C469.288 114.118 471.406 114.83 474.922 115.85C477.928 116.746 480.125 117.827 481.514 119.093C483.588 120.974 484.625 123.619 484.625 127.029C484.625 130.334 483.447 133.155 481.092 135.493C478.754 137.831 475.941 139 472.654 139H462.608C461.747 139 461 138.684 460.367 138.051C459.734 137.418 459.418 136.671 459.418 135.81V135.651C459.418 134.79 459.734 134.043 460.367 133.41C461 132.777 461.747 132.461 462.608 132.461H472.918C474.412 132.461 475.695 131.934 476.768 130.879C477.822 129.824 478.35 128.541 478.35 127.029C478.35 125.271 477.532 123.9 475.897 122.916C475.124 122.459 472.997 121.686 469.517 120.596C466.511 119.611 464.322 118.495 462.951 117.247C460.877 115.384 459.84 112.844 459.84 109.627C459.84 106.322 461.009 103.501 463.347 101.163C465.685 98.8252 468.506 97.6562 471.811 97.6562H478.903C479.782 97.6562 480.538 97.9727 481.171 98.6055C481.786 99.2207 482.094 99.9678 482.094 100.847V101.005C482.094 101.866 481.786 102.613 481.171 103.246C480.538 103.879 479.782 104.195 478.903 104.195H471.547Z" fill="#1D1D1B"/>
<path d="M130.333 149.332H491.426" stroke="#1D1D1B" stroke-width="4.78" stroke-miterlimit="10"/>
<path d="M490.62 150.09C491.038 150.09 491.376 149.751 491.376 149.333C491.376 148.915 491.038 148.576 490.62 148.576C490.202 148.576 489.863 148.915 489.863 149.333C489.863 149.751 490.202 150.09 490.62 150.09Z" fill="#1D1D1B" stroke="#1D1D1B" stroke-width="3.19" stroke-miterlimit="10"/>
</svg>
